<svg width="105" height="90" viewBox="0 0 105 90" fill="none" xmlns="http://www.w3.org/2000/svg">
<g clip-path="url(#clip0_2_346)">
<path d="M5 27.5H100V75H5V27.5Z" fill="#EDEDED"/>
<path d="M5 75H100V80C100 80.6567 99.871 81.3069 99.6198 81.9136C99.3686 82.5203 99.0003 83.0716 98.5359 83.5359C98.0716 84.0003 97.5203 84.3686 96.9136 84.6198C96.3069 84.871 95.6567 85.0002 95 85H10C9.34334 85.0002 8.69308 84.871 8.08637 84.6198C7.47966 84.3686 6.92839 84.0003 6.46406 83.5359C5.99973 83.0716 5.63144 82.5203 5.38023 81.9136C5.12903 81.3069 4.99982 80.6567 5 80V75Z" fill="#CACACA"/>
<path d="M60.5 45C60.5 43.8954 61.3954 43 62.5 43H85.5C86.6046 43 87.5 43.8954 87.5 45V83C87.5 84.1046 86.6046 85 85.5 85H62.5C61.3954 85 60.5 84.1046 60.5 83V45Z" fill="#656565"/>
<path d="M48 42.5H17C15.8954 42.5 15 43.3954 15 44.5V65.5C15 66.6046 15.8954 67.5 17 67.5H48C49.1046 67.5 50 66.6046 50 65.5V44.5C50 43.3954 49.1046 42.5 48 42.5Z" fill="#929292"/>
<path d="M97.5 20H7.5L1.89184e-07 27.5V30C-0.000180467 30.6567 0.129025 31.3069 0.380234 31.9136C0.631444 32.5203 0.999734 33.0716 1.46406 33.5359C1.92839 34.0003 2.47966 34.3686 3.08637 34.6198C3.69308 34.871 4.34334 35.0002 5 35H100C100.657 35.0002 101.307 34.871 101.914 34.6198C102.52 34.3686 103.072 34.0003 103.536 33.5359C104 33.0716 104.369 32.5203 104.62 31.9136C104.871 31.3069 105 30.6567 105 30V27.5L97.5 20Z" fill="#E13F1F"/>
<path d="M105 27.5H0L4.575 6.95C4.69751 6.3978 5.00443 5.9038 5.44522 5.54935C5.88601 5.1949 6.43438 5.00115 7 5H98C98.5656 5.00115 99.114 5.1949 99.5548 5.54935C99.9956 5.9038 100.302 6.3978 100.425 6.95L105 27.5Z" fill="#FF5634"/>
<path d="M87.5 75H60.5V85H87.5V75Z" fill="#656565"/>
</g>
<defs>
<clipPath id="clip0_2_346">
<rect width="105" height="90" fill="white"/>
</clipPath>
</defs>
</svg>
