<svg width="63" height="56" viewBox="0 0 63 56" fill="none" xmlns="http://www.w3.org/2000/svg">
<g clip-path="url(#clip0_2_203)">
<path d="M2.35217 12.5752H61.4341V44H2.35217V12.5752Z" fill="#A5D6A7"/>
<path d="M0 42.6552C0 44.312 1.34315 45.6552 3 45.6552H60.0094C61.6663 45.6552 63.0094 44.312 63.0094 42.6552V13C63.0094 11.8954 62.114 11 61.0094 11H2C0.895433 11 0 11.8954 0 13V42.6552ZM59.8589 14.1505V42.5047H3.15047V14.1505H59.8589Z" fill="#388E3C"/>
<path d="M12.6018 25.1771C11.7663 25.1771 10.965 25.509 10.3741 26.0998C9.7833 26.6907 9.45137 27.492 9.45137 28.3275C9.45137 29.1631 9.7833 29.9644 10.3741 30.5553C10.965 31.1461 11.7663 31.478 12.6018 31.478C13.4374 31.478 14.2387 31.1461 14.8296 30.5553C15.4204 29.9644 15.7523 29.1631 15.7523 28.3275C15.7523 27.492 15.4204 26.6907 14.8296 26.0998C14.2387 25.509 13.4374 25.1771 12.6018 25.1771ZM50.4075 25.1771C49.5719 25.1771 48.7706 25.509 48.1798 26.0998C47.5889 26.6907 47.257 27.492 47.257 28.3275C47.257 29.1631 47.5889 29.9644 48.1798 30.5553C48.7706 31.1461 49.5719 31.478 50.4075 31.478C51.2431 31.478 52.0444 31.1461 52.6352 30.5553C53.226 29.9644 53.558 29.1631 53.558 28.3275C53.558 27.492 53.226 26.6907 52.6352 26.0998C52.0444 25.509 51.2431 25.1771 50.4075 25.1771ZM31.5047 17.3009C28.5802 17.3009 25.7756 18.4626 23.7077 20.5305C21.6398 22.5984 20.478 25.4031 20.478 28.3275C20.478 31.252 21.6398 34.0567 23.7077 36.1246C25.7756 38.1925 28.5802 39.3542 31.5047 39.3542C34.4291 39.3542 37.2338 38.1925 39.3017 36.1246C41.3696 34.0567 42.5313 31.252 42.5313 28.3275C42.5313 25.4031 41.3696 22.5984 39.3017 20.5305C37.2338 18.4626 34.4291 17.3009 31.5047 17.3009ZM54.7851 12.5752C54.0305 13.4132 53.558 14.5096 53.558 15.7257C53.558 18.3358 55.6735 20.4514 58.2837 20.4514C59.4998 20.4514 60.5961 19.9788 61.4341 19.2243V12.5752H54.7851ZM8.22426 12.5752H1.5752V19.2243C2.41322 19.9788 3.50958 20.4514 4.72567 20.4514C7.33583 20.4514 9.45137 18.3358 9.45137 15.7257C9.45137 14.5096 8.9788 13.4132 8.22426 12.5752ZM8.22426 44.0799C8.9788 43.2419 9.45137 42.1455 9.45137 40.9294C9.45137 38.3193 7.33583 36.2037 4.72567 36.2037C3.50958 36.2037 2.41322 36.6763 1.5752 37.4308V44.0799H8.22426ZM61.4341 44.0799V37.4308C60.5961 36.6763 59.4998 36.2037 58.2837 36.2037C55.6735 36.2037 53.558 38.3193 53.558 40.9294C53.558 42.1455 54.0305 43.2419 54.7851 44.0799H61.4341Z" fill="#388E3C"/>
</g>
<defs>
<clipPath id="clip0_2_203">
<rect width="63" height="56" fill="white"/>
</clipPath>
</defs>
</svg>
