<svg width="105" height="90" viewBox="0 0 105 90" fill="none" xmlns="http://www.w3.org/2000/svg">
<path d="M85.122 40.5205C84.3076 37.817 81.8296 35.8359 78.8612 35.8359C78.824 35.8359 78.789 35.8468 78.7518 35.8468C78.222 32.1342 75.0588 29.2687 71.1995 29.2687C68.8397 29.2687 66.7557 30.3588 65.3503 32.0356C64.4528 31.6679 63.4742 31.4577 62.4432 31.4577C61.7011 31.4577 60.9962 31.5978 60.3176 31.7948C58.8531 29.0038 55.9614 27.0796 52.5924 27.0796C49.3131 27.0796 46.4871 28.9053 44.9875 31.5738C44.6132 31.5081 44.2301 31.4577 43.8361 31.4577C43.3041 31.4577 42.7919 31.5387 42.2972 31.6591C41.0932 30.21 39.3003 29.2687 37.2689 29.2687C35.8985 29.2687 34.6289 29.689 33.5759 30.407C32.4157 29.6977 31.0672 29.2687 29.6071 29.2687C25.3757 29.2687 21.9454 32.6989 21.9454 36.9304C21.9454 37.3398 22.0045 37.7316 22.0658 38.1235C18.3006 38.6072 15.3782 41.788 15.3782 45.6867C15.3782 49.9182 18.8084 53.3484 23.0399 53.3484C23.4143 53.3484 23.7733 53.2893 24.1345 53.239V53.3484H81.0503V52.9457C81.7377 53.1908 82.4666 53.3484 83.2394 53.3484C86.8667 53.3484 89.8066 50.4085 89.8066 46.7812C89.8066 43.8128 87.8255 41.3348 85.122 40.5205Z" fill="#EDEDED"/>
<path d="M69.4526 36.171L88.4187 9.56721L91.9956 12.0912L73.5089 38.0251H69.9955C69.9013 37.3728 69.6999 36.7598 69.4526 36.171ZM66.7118 32.7582L81.0503 5.03146L77.1712 3L62.4541 31.4601C64.0302 31.4623 65.4947 31.9395 66.7118 32.7582Z" fill="#FF5634"/>
<path d="M70.3348 43.6182C70.8733 42.5324 72.1889 42.0968 73.2725 42.6353C74.3539 43.1738 74.7917 44.4916 74.251 45.5686L72.294 49.4827C71.7555 50.5685 70.4399 51.0041 69.3563 50.4656C68.2749 49.9271 67.8392 48.6093 68.3778 47.5322L70.3348 43.6182ZM43.5931 43.0665C42.7503 43.9334 42.7678 45.3191 43.6325 46.1619C44.5037 47.0047 45.8872 46.9872 46.73 46.1203L49.7838 42.9812C50.6288 42.1121 50.6069 40.7286 49.74 39.8858C48.8731 39.0386 47.4853 39.0605 46.6447 39.9274L43.5931 43.0665ZM31.9013 35.9805C30.8877 35.3216 29.5349 35.5952 28.8716 36.6132C28.2083 37.6223 28.4907 38.9817 29.5042 39.6406L33.1644 42.0442C34.1779 42.7119 35.5329 42.4208 36.1962 41.4116C36.8617 40.4024 36.5771 39.043 35.5636 38.3841L31.9013 35.9805ZM58.1701 36.195C57.1566 35.5318 55.8037 35.8098 55.1404 36.8233C54.4772 37.8368 54.7595 39.1919 55.7731 39.8552L59.4332 42.2544C60.4467 42.9221 61.8018 42.6353 62.4651 41.6261C63.1305 40.6126 62.846 39.2532 61.8324 38.5943L58.1701 36.195Z" fill="#CACACA"/>
<path d="M11 46.7812H94.1847C94.1847 46.7812 94.038 81.8064 52.5923 81.8064C11.1467 81.8064 11 46.7812 11 46.7812Z" fill="#FDB52A"/>
<path d="M37.2688 79.6177H67.9158V86.1849H37.2688V79.6177Z" fill="#D68D00"/>
</svg>
