<svg width="105" height="90" viewBox="0 0 105 90" fill="none" xmlns="http://www.w3.org/2000/svg">
<path d="M29.1596 19.6153C26.0327 19.6153 23.5058 18.6045 21.4773 17.7899C18.2396 16.493 16.832 16.0476 14.4481 17.9538C13.4489 18.7522 12.002 18.5861 11.2035 17.5938C10.4073 16.5991 10.5712 15.1453 11.5635 14.3515C16.1466 10.6845 19.8896 12.1845 23.192 13.5068C25.0266 14.2407 26.9212 14.9999 29.1596 14.9999C30.4358 14.9999 31.4673 16.0338 31.4673 17.3076C31.4673 18.5815 30.4358 19.6153 29.1596 19.6153Z" fill="#E13F1F"/>
<path d="M33.7751 23.0765H24.5443V16.1534C24.5443 14.8795 25.5782 13.8457 26.852 13.8457H31.4674C32.7412 13.8457 33.7751 14.8795 33.7751 16.1534V23.0765Z" fill="#FF5634"/>
<path d="M38.3905 30.0003H19.929V23.0772C19.929 21.8034 20.9628 20.7695 22.2366 20.7695H36.0828C37.3567 20.7695 38.3905 21.8034 38.3905 23.0772V30.0003Z" fill="#E13F1F"/>
<path d="M45.3136 41.5385H13.0059V32.3078C13.0059 29.7578 15.0712 27.6924 17.6212 27.6924H40.6982C43.2482 27.6924 45.3136 29.7578 45.3136 32.3078V41.5385Z" fill="#FF5634"/>
<path d="M68.8059 31.1541C68.552 30.5079 68.2751 29.8618 67.9751 29.2387L67.2136 27.6925L66.6597 26.5618L64.952 23.0771H44.1367L42.429 26.5618L41.8751 27.6925L41.1136 29.2387C40.8136 29.8618 40.5367 30.5079 40.2828 31.1541C39.0367 34.2925 38.3905 37.6848 38.3905 41.0771V42.6925H70.6982V41.0771C70.6982 37.6848 70.052 34.2925 68.8059 31.1541Z" fill="#F9F9F9"/>
<path d="M67.2136 27.6923H41.8751L42.429 26.5615L44.1367 23.0769L48.0828 15H61.0059L64.952 23.0769L66.6597 26.5615L67.2136 27.6923Z" fill="#CACACA"/>
<path d="M48.7751 16.1535H60.3136C62.2244 16.1535 63.7751 14.6028 63.7751 12.692C63.7751 10.7812 62.2244 9.23047 60.3136 9.23047H48.7751C46.8644 9.23047 45.3136 10.7812 45.3136 12.692C45.3136 14.6028 46.8644 16.1535 48.7751 16.1535Z" fill="#656565"/>
<path d="M91.4675 41.5385H70.6982V10.3846C70.6982 4.65 75.3482 0 81.0829 0C86.8175 0 91.4675 4.65 91.4675 10.3846V41.5385Z" fill="#FFCF7B"/>
<path d="M83.1528 17.0699C80.9535 19.2691 78.1197 20.2914 76.4512 20.7276C75.7104 20.9283 75.1451 20.3606 75.3458 19.6222C75.3804 19.5045 75.4151 19.373 75.4497 19.2414C75.9343 17.5545 76.9635 14.9606 79.0035 12.9206C81.0435 10.8806 83.6235 9.85141 85.3174 9.37372C85.4558 9.33218 85.5874 9.29757 85.7051 9.26295C86.4458 9.06218 87.0112 9.62988 86.8104 10.3683C86.3766 12.0368 85.352 14.8706 83.1528 17.0699Z" fill="#E38101"/>
<path d="M83.1528 33.2242C80.9535 35.4234 78.1197 36.4457 76.4512 36.8819C75.7104 37.0826 75.1451 36.5149 75.3458 35.7765C75.3804 35.6588 75.4151 35.5272 75.4497 35.3957C75.9343 33.7088 76.9635 31.1149 79.0035 29.0749C81.0435 27.0349 83.6235 26.0057 85.3174 25.528C85.4558 25.4865 85.5874 25.4519 85.7051 25.4173C86.4458 25.2165 87.0112 25.7842 86.8104 26.5226C86.3766 28.1911 85.352 31.0249 83.1528 33.2242Z" fill="#E38101"/>
<path d="M97.4905 42.1382L96.5444 48.4612L96.4059 49.3843L90.9828 85.6843C90.5905 88.1766 88.4674 89.9997 85.9521 89.9997H18.5213C16.0059 89.9997 13.8828 88.1766 13.4905 85.6843L8.11358 49.3843L7.97511 48.4612L7.02896 42.1382C6.79819 40.592 7.97511 39.2305 9.54434 39.2305H94.9751C96.5444 39.2305 97.7213 40.592 97.4905 42.1382Z" fill="#4CAF50"/>
<path d="M97.4905 42.1382L96.5444 48.4612H7.97511L7.02896 42.1382C6.79819 40.592 7.97511 39.2305 9.54434 39.2305H94.9751C96.5444 39.2305 97.7213 40.592 97.4905 42.1382Z" fill="#53D158"/>
<path d="M44.1598 85.3849C42.249 85.3849 40.6982 83.8342 40.6982 81.9234V56.5387C40.6982 54.6279 42.249 53.0771 44.1598 53.0771C46.0706 53.0771 47.6213 54.6279 47.6213 56.5387V81.9234C47.6213 83.8342 46.0706 85.3849 44.1598 85.3849Z" fill="black" fill-opacity="0.18"/>
<path d="M28.0059 85.3849C26.0951 85.3849 24.5443 83.8342 24.5443 81.9234V56.5387C24.5443 54.6279 26.0951 53.0771 28.0059 53.0771C29.9166 53.0771 31.4674 54.6279 31.4674 56.5387V81.9234C31.4674 83.8342 29.9166 85.3849 28.0059 85.3849Z" fill="black" fill-opacity="0.18"/>
<path d="M60.3136 85.3849C58.4028 85.3849 56.8521 83.8342 56.8521 81.9234V56.5387C56.8521 54.6279 58.4028 53.0771 60.3136 53.0771C62.2244 53.0771 63.7751 54.6279 63.7751 56.5387V81.9234C63.7751 83.8342 62.2244 85.3849 60.3136 85.3849Z" fill="black" fill-opacity="0.18"/>
<path d="M76.4674 85.3849C74.5566 85.3849 73.0059 83.8342 73.0059 81.9234V56.5387C73.0059 54.6279 74.5566 53.0771 76.4674 53.0771C78.3782 53.0771 79.9289 54.6279 79.9289 56.5387V81.9234C79.9289 83.8342 78.3782 85.3849 76.4674 85.3849Z" fill="black" fill-opacity="0.18"/>
</svg>
