<svg width="102" height="90" viewBox="0 0 102 90" fill="none" xmlns="http://www.w3.org/2000/svg">
<path d="M36.0297 90.0742C42.248 90.0742 47.289 85.0333 47.289 78.815C47.289 72.5966 42.248 67.5557 36.0297 67.5557C29.8113 67.5557 24.7704 72.5966 24.7704 78.815C24.7704 85.0333 29.8113 90.0742 36.0297 90.0742Z" fill="#3F3F3F"/>
<path d="M9.00749 58.5486H29.2742C30.5172 58.5486 31.526 57.5398 31.526 56.2968C31.526 55.0538 30.5172 54.0449 29.2742 54.0449H9.00749C7.76444 54.0449 6.75562 55.0538 6.75562 56.2968C6.75562 57.5398 7.76444 58.5486 9.00749 58.5486Z" fill="#FF5634"/>
<path d="M90.0744 90.0742C96.2927 90.0742 101.334 85.0333 101.334 78.815C101.334 72.5966 96.2927 67.5557 90.0744 67.5557C83.856 67.5557 78.8151 72.5966 78.8151 78.815C78.8151 85.0333 83.856 90.0742 90.0744 90.0742Z" fill="#3F3F3F"/>
<path d="M90.0743 83.319C92.5616 83.319 94.578 81.3026 94.578 78.8152C94.578 76.3279 92.5616 74.3115 90.0743 74.3115C87.5869 74.3115 85.5706 76.3279 85.5706 78.8152C85.5706 81.3026 87.5869 83.319 90.0743 83.319Z" fill="white"/>
<path d="M36.0297 83.319C38.517 83.319 40.5334 81.3026 40.5334 78.8152C40.5334 76.3279 38.517 74.3115 36.0297 74.3115C33.5424 74.3115 31.526 76.3279 31.526 78.8152C31.526 81.3026 33.5424 83.319 36.0297 83.319Z" fill="white"/>
<path d="M90.0743 81.0663C89.1736 81.0663 88.498 80.6159 88.0476 79.7152L79.0402 61.7003C78.5898 60.5744 79.0402 59.2232 79.941 58.7729C81.0669 58.3225 82.418 58.7729 82.8684 59.6736L91.8758 77.6885C92.3262 78.8144 91.8758 80.1655 90.9751 80.6159C90.7499 81.0663 90.5247 81.0663 90.0743 81.0663Z" fill="#E13F1F"/>
<path d="M42.7853 78.8147H70.0258C72.3926 78.8147 74.2399 76.8663 74.7649 74.5584C76.5648 66.6461 83.3978 63.3756 89.3987 62.6013C92.5513 62.3761 92.3261 58.548 92.3261 58.548C87.8224 42.785 76.5631 31.5257 72.0594 27.022H67.5557C74.1244 39.7224 76.061 72.6851 58.5483 72.0591H42.7853V78.8147Z" fill="#E13F1F"/>
<path d="M54.0446 51.7925H31.526C27.0223 56.2962 22.5186 65.3036 22.5186 72.0592C27.0223 74.3111 42.7853 72.0592 42.7853 72.0592H58.5483C49.8223 72.0592 47.289 59.6132 54.0446 51.7925Z" fill="#E13F1F"/>
<path d="M76.5632 20.2661V29.2735C79.0403 29.2735 81.0669 27.2469 81.0669 24.7698C81.0669 22.2928 79.0403 20.2661 76.5632 20.2661Z" fill="#FFC107"/>
<path d="M59.1113 53.5938C59.1113 54.1748 58.7983 54.7062 58.2781 54.9629C56.7063 55.7353 52.8399 57.1967 46.0505 57.1967C36.8179 57.1967 29.8372 54.0441 29.8372 54.0441V52.9182C29.8372 49.8084 32.357 47.2886 35.4668 47.2886H52.8061C56.274 47.2886 59.1113 50.1259 59.1113 53.5938Z" fill="#3F3F3F"/>
<path d="M67.5738 27.8706C70.3999 28.7826 73.4061 29.2285 76.5632 29.2735V20.2661C73.4264 20.3089 70.3864 20.8133 67.4387 21.7546C66.1439 22.1667 65.304 23.4255 65.304 24.7833C65.304 26.1975 66.2295 27.4383 67.5738 27.8706Z" fill="#FF5634"/>
<path d="M36.0298 63.0518C28.5132 63.0518 20.7353 67.9501 17.201 74.9661C16.2603 76.8336 17.7886 78.8148 19.8796 78.8148H48.5787C50.3538 78.8148 51.8272 77.3616 51.481 75.6206C50.0394 68.3705 43.7599 63.0518 36.0298 63.0518Z" fill="#FF5634"/>
<path d="M54.0446 29.2742H69.8076C71.0506 29.2742 72.0594 28.2654 72.0594 27.0224C72.0594 25.7793 71.0506 24.7705 69.8076 24.7705H54.0446C52.8016 24.7705 51.7927 25.7793 51.7927 27.0224C51.7927 28.2654 52.8016 29.2742 54.0446 29.2742Z" fill="#3F3F3F"/>
<path d="M29.2741 29.2739H0V50.8303C0 52.6054 1.439 54.0444 3.21409 54.0444H26.06C27.8351 54.0444 29.2741 52.6054 29.2741 50.8303V29.2739Z" fill="#FDB52A"/>
<path d="M27.1314 27.022H2.14273C0.95933 27.022 0 27.9813 0 29.1647V33.7775H29.2741V29.1647C29.2741 27.9813 28.3148 27.022 27.1314 27.022Z" fill="#D99002"/>
<path d="M33.7778 2.25146H4.50366V23.8078C4.50366 25.5829 5.94266 27.0219 7.71775 27.0219H30.5637C32.3388 27.0219 33.7778 25.5829 33.7778 23.8078V2.25146Z" fill="#FDB52A"/>
<path d="M31.6351 0H6.64639C5.463 0 4.50366 0.959334 4.50366 2.14273V6.75557H33.7778V2.14273C33.7778 0.959333 32.8185 0 31.6351 0Z" fill="#D99002"/>
</svg>
