<svg width="72" height="72" viewBox="0 0 72 72" fill="none" xmlns="http://www.w3.org/2000/svg">
<path d="M54 13.5H18V64.5C18 66.1575 19.3425 67.5 21 67.5H51C52.6575 67.5 54 66.1575 54 64.5V13.5Z" fill="#EDEDED"/>
<path d="M54 13.5H18V9C18 7.3425 19.3425 6 21 6H51C52.6575 6 54 7.3425 54 9V13.5Z" fill="#CACACA"/>
<path d="M30 10.875C30.6213 10.875 31.125 10.3713 31.125 9.75C31.125 9.12868 30.6213 8.625 30 8.625C29.3787 8.625 28.875 9.12868 28.875 9.75C28.875 10.3713 29.3787 10.875 30 10.875Z" fill="#929292"/>
<path d="M41.25 8.625C40.959 8.625 34.041 8.625 33.75 8.625C33.129 8.625 32.625 9.129 32.625 9.75C32.625 10.371 33.129 10.875 33.75 10.875C34.041 10.875 40.959 10.875 41.25 10.875C41.871 10.875 42.375 10.371 42.375 9.75C42.375 9.129 41.871 8.625 41.25 8.625Z" fill="#929292"/>
<path d="M45.333 51H26.667C26.025 51 25.5 50.475 25.5 49.833V31.167C25.5 30.525 26.025 30 26.667 30H45.333C45.975 30 46.5 30.525 46.5 31.167V49.833C46.5 50.475 45.975 51 45.333 51Z" fill="#FDB52A"/>
<path opacity="0.8" d="M31 33C31 32.4477 31.4477 32 32 32H40C40.5523 32 41 32.4477 41 33C41 33.5523 40.5523 34 40 34H32C31.4477 34 31 33.5523 31 33Z" fill="white"/>
</svg>
