<svg width="105" height="90" viewBox="0 0 105 90" fill="none" xmlns="http://www.w3.org/2000/svg">
<path d="M80.1915 44.0128C80.1915 44.0128 84.9218 35.5595 85.3584 30.7893C85.4959 29.2931 84.96 27.8196 83.7109 26.9863L82.6723 26.2939C81.3849 25.4362 80.743 23.8861 81.0474 22.3691L81.8564 19.6569C82.2704 17.5901 80.9291 15.579 78.8624 15.1667L75.9553 14.9127C74.5096 14.6239 73.3597 13.5262 73.0013 12.0961C72.4098 9.72665 69.7759 8.51582 67.5925 9.60835L67.349 9.73013C65.8789 10.4643 63.9566 9.92324 62.7944 8.76112L62.6326 8.59933C60.9904 6.9553 58.2747 7.14841 56.8812 9.00642C56.8812 9.00642 54.0976 12.6981 52.3579 12.6981C48.6158 20.0779 50.6165 45.7525 50.6165 45.7525L78.3422 48.2542L80.1915 44.0128Z" fill="#689F38"/>
<path d="M76.7138 61.4103V44.0132C76.7138 37.1796 71.4947 37.8529 71.4947 23.1367C71.4947 23.1367 64.9221 23.1367 62.7961 23.1367C62.7961 37.8529 57.577 37.1796 57.577 44.0132V61.4103H76.7138Z" fill="#FAFAFA"/>
<path d="M71.4946 26.6156H62.7961C61.8393 26.6156 61.0564 25.8327 61.0564 24.8759V23.1362C61.0564 22.1794 61.8393 21.3965 62.7961 21.3965H71.4946C72.4515 21.3965 73.2343 22.1794 73.2343 23.1362V24.8759C73.2343 25.8327 72.4515 26.6156 71.4946 26.6156Z" fill="#FDB52A"/>
<path d="M73.2345 44.0129C73.2345 42.148 72.7247 41.2346 71.7992 39.575C70.9694 38.0875 69.9847 36.2921 69.2262 33.5747H65.0665C64.308 36.2921 63.3234 38.0875 62.4935 39.575C61.5663 41.2346 61.0565 42.148 61.0565 44.0129V57.9306H73.2345V44.0129Z" fill="#FAFAFA"/>
<path d="M40.1818 16.1779C40.274 9.16171 43.2715 4 47.1406 4C51.0097 4 54.0994 9.16171 54.0994 16.1779C54.0994 21.0143 51.0097 24.8765 47.1406 24.8765C43.2715 24.8765 40.1174 21.0126 40.1818 16.1779Z" fill="#FFD54F"/>
<path d="M40.1816 16.1777H54.0993V47.4924H40.1816V16.1777Z" fill="#FFD54F"/>
<path d="M41.9214 26.6209C41.9214 26.6209 43.4436 22.8144 46.2324 20.2571C49.0211 17.6997 52.3596 17.9224 52.3596 17.9224C52.3596 17.9224 50.773 21.6227 47.9843 24.1784C45.1955 26.734 41.9214 26.6209 41.9214 26.6209ZM41.9214 38.7971C41.9214 38.7971 43.4436 34.9906 46.2324 32.4333C49.0211 29.8776 52.3596 30.0986 52.3596 30.0986C52.3596 30.0986 50.773 33.7989 47.9843 36.3546C45.1955 38.9119 41.9214 38.7971 41.9214 38.7971Z" fill="#FFB300"/>
<path d="M42.4121 51.7339L36.7667 76.4012C36.3457 78.548 37.9915 80.5469 40.1818 80.5469H81.9312C84.0484 80.5469 85.6751 78.6715 85.3758 76.5751L82.4636 56.191L42.4121 51.7339Z" fill="#FFAB40"/>
<path d="M80.1916 70.3123L85.3863 44.0479C85.5586 43.1259 84.8505 42.2734 83.9111 42.2734H38.2037C37.2904 42.2734 36.5893 43.0824 36.718 43.9853L40.1818 66.6293L80.1916 70.3123Z" fill="#FFAB40"/>
<path d="M73.2326 57.0606L82.8167 58.6577L82.6827 57.72L83.1385 55.4097L73.2326 57.0606ZM48.882 62.3407L39.2805 60.7419L39.7085 63.5411L39.6302 63.8838L48.882 62.3407Z" fill="#FB8C00"/>
<path d="M35.6799 53.6328C31.2561 53.6328 27.0135 55.3902 23.8854 58.5182C20.7573 61.6463 19 65.8889 19 70.3127C19 74.7365 20.7573 78.9791 23.8854 82.1072C27.0135 85.2352 31.2561 86.9926 35.6799 86.9926C40.1037 86.9926 44.3463 85.2352 47.4743 82.1072C50.6024 78.9791 52.3598 74.7365 52.3598 70.3127C52.3598 65.8889 50.6024 61.6463 47.4743 58.5182C44.3463 55.3902 40.1037 53.6328 35.6799 53.6328Z" fill="#4CAF50"/>
<path d="M44.0866 62.8354L33.308 73.6273L28.8595 69.1888L26.6144 71.4374L33.3114 78.1193L46.335 65.0822L44.0866 62.8354Z" fill="white"/>
</svg>
