<svg width="72" height="72" viewBox="0 0 72 72" fill="none" xmlns="http://www.w3.org/2000/svg">
<path d="M54 13.5H18V64.5C18 66.1575 19.3425 67.5 21 67.5H51C52.6575 67.5 54 66.1575 54 64.5V13.5Z" fill="#EDEDED"/>
<path d="M54 13.5H18V9C18 7.3425 19.3425 6 21 6H51C52.6575 6 54 7.3425 54 9V13.5Z" fill="#CACACA"/>
<path d="M30 10.875C30.6213 10.875 31.125 10.3713 31.125 9.75C31.125 9.12868 30.6213 8.625 30 8.625C29.3787 8.625 28.875 9.12868 28.875 9.75C28.875 10.3713 29.3787 10.875 30 10.875Z" fill="#929292"/>
<path d="M41.25 8.625C40.959 8.625 34.041 8.625 33.75 8.625C33.129 8.625 32.625 9.129 32.625 9.75C32.625 10.371 33.129 10.875 33.75 10.875C34.041 10.875 40.959 10.875 41.25 10.875C41.871 10.875 42.375 10.371 42.375 9.75C42.375 9.129 41.871 8.625 41.25 8.625Z" fill="#929292"/>
<path d="M36.942 28.9005C36.408 28.3665 35.6085 28.3665 35.076 28.9005L26.409 37.5675C25.875 38.1015 25.875 38.901 26.409 39.4335C26.676 39.7005 27.009 39.834 27.342 39.834C27.675 39.834 28.008 39.7005 28.275 39.4335L36.942 30.7665C37.4745 30.234 37.4745 29.433 36.942 28.9005Z" fill="#656565"/>
<path d="M45.942 37.9005L36.942 28.9005C36.408 28.3665 35.6085 28.3665 35.076 28.9005C34.542 29.4345 34.542 30.234 35.076 30.7665L44.076 39.7665C44.343 40.0335 44.676 40.167 45.009 40.167C45.342 40.167 45.675 40.0335 45.942 39.7665C46.4745 39.234 46.4745 38.433 45.942 37.9005Z" fill="#656565"/>
<path d="M49.0815 38.673L48.8085 40.5L48.768 40.767L47.202 51.2535C47.088 51.9735 46.4745 52.5 45.7485 52.5H26.268C25.542 52.5 24.9285 51.9735 24.8145 51.2535L23.2605 40.767L23.2215 40.5L22.9485 38.673C22.8825 38.226 23.2215 37.833 23.6745 37.833H48.354C48.8085 37.833 49.149 38.226 49.0815 38.673Z" fill="#4CAF50"/>
<path d="M33.675 51.1665C33.123 51.1665 32.6745 50.718 32.6745 50.166V42.8325C32.6745 42.2805 33.123 41.832 33.675 41.832C34.227 41.832 34.6755 42.2805 34.6755 42.8325V50.166C34.6755 50.718 34.227 51.1665 33.675 51.1665Z" fill="black" fill-opacity="0.24"/>
<path d="M29.0085 51.1665C28.4565 51.1665 28.008 50.718 28.008 50.166V42.8325C28.008 42.2805 28.4565 41.832 29.0085 41.832C29.5605 41.832 30.009 42.2805 30.009 42.8325V50.166C30.009 50.718 29.5605 51.1665 29.0085 51.1665Z" fill="black" fill-opacity="0.24"/>
<path d="M38.3415 51.1665C37.7895 51.1665 37.341 50.718 37.341 50.166V42.8325C37.341 42.2805 37.7895 41.832 38.3415 41.832C38.8935 41.832 39.342 42.2805 39.342 42.8325V50.166C39.342 50.718 38.8935 51.1665 38.3415 51.1665Z" fill="black" fill-opacity="0.24"/>
<path d="M43.008 51.1665C42.456 51.1665 42.0075 50.718 42.0075 50.166V42.8325C42.0075 42.2805 42.456 41.832 43.008 41.832C43.56 41.832 44.0085 42.2805 44.0085 42.8325V50.166C44.0085 50.718 43.56 51.1665 43.008 51.1665Z" fill="black" fill-opacity="0.24"/>
</svg>
