<svg width="72" height="72" viewBox="0 0 72 72" fill="none" xmlns="http://www.w3.org/2000/svg">
<path d="M54 13.5H18V64.5C18 66.1575 19.3425 67.5 21 67.5H51C52.6575 67.5 54 66.1575 54 64.5V13.5Z" fill="#EDEDED"/>
<path d="M54 13.5H18V9C18 7.3425 19.3425 6 21 6H51C52.6575 6 54 7.3425 54 9V13.5Z" fill="#CACACA"/>
<path d="M30 10.875C30.6213 10.875 31.125 10.3713 31.125 9.75C31.125 9.12868 30.6213 8.625 30 8.625C29.3787 8.625 28.875 9.12868 28.875 9.75C28.875 10.3713 29.3787 10.875 30 10.875Z" fill="#929292"/>
<path d="M41.25 8.625C40.959 8.625 34.041 8.625 33.75 8.625C33.129 8.625 32.625 9.129 32.625 9.75C32.625 10.371 33.129 10.875 33.75 10.875C34.041 10.875 40.959 10.875 41.25 10.875C41.871 10.875 42.375 10.371 42.375 9.75C42.375 9.129 41.871 8.625 41.25 8.625Z" fill="#929292"/>
<path d="M43.5375 43.348C47.5875 39.1855 47.496 32.5285 43.332 28.4785C39.168 24.4285 32.5125 24.52 28.4625 28.684C24.492 32.7655 24.492 39.2665 28.4625 43.3495C28.473 43.36 28.4805 43.3735 28.491 43.384L28.5255 43.4185C28.5525 43.447 28.581 43.474 28.608 43.501L35.1735 50.0665C35.6295 50.5225 36.369 50.5225 36.825 50.0665L43.392 43.4995C43.4205 43.4725 43.4475 43.444 43.4745 43.417L43.509 43.3825C43.521 43.3705 43.527 43.3585 43.5375 43.348Z" fill="#FF5634"/>
<path d="M36 40.6976C38.5814 40.6976 40.674 38.605 40.674 36.0236C40.674 33.4422 38.5814 31.3496 36 31.3496C33.4186 31.3496 31.326 33.4422 31.326 36.0236C31.326 38.605 33.4186 40.6976 36 40.6976Z" fill="#F9F9F9"/>
</svg>
