<svg width="239" height="43" viewBox="0 0 239 43" fill="none" xmlns="http://www.w3.org/2000/svg">
<path d="M22.9767 39.9543C27.954 39.9543 32.7274 37.9771 36.2468 34.4577C39.7663 30.9382 41.7435 26.1648 41.7435 21.1875H4.20984C4.20984 26.1648 6.18705 30.9382 9.70652 34.4577C11.4492 36.2003 13.518 37.5827 15.7949 38.5258C18.0718 39.4689 20.5122 39.9543 22.9767 39.9543Z" stroke="#929292" stroke-width="4.5" stroke-linecap="round" stroke-linejoin="round"/>
<path d="M24.4203 15.4132L33.0819 2.42078" stroke="#929292" stroke-width="4.5" stroke-linecap="round" stroke-linejoin="round"/>
<path d="M28.7511 16.8567L38.8563 8.19507" stroke="#929292" stroke-width="4.5" stroke-linecap="round" stroke-linejoin="round"/>
<path d="M79.9693 33.9219L74.3133 25.8896C77.4592 24.7852 79.5342 22.1078 79.5342 18.6941C79.5342 14.1425 75.8528 10.9296 70.8661 10.9296H60.5246V33.9219H65.4443V26.4586H69.0923L74.3467 33.9219H79.9693ZM65.4443 15.4477H70.3306C72.7737 15.4477 74.4471 16.7195 74.4471 18.6941C74.4471 20.6687 72.7737 21.9405 70.3306 21.9405H65.4443V15.4477ZM91.239 30.0062C89.1975 30.0062 87.6914 28.7344 87.1225 26.8602H99.6059C99.6059 20.334 96.4265 16.2175 91.0047 16.2175C85.9511 16.2175 82.1023 19.9993 82.1023 25.2203C82.1023 30.5416 86.1184 34.3235 91.2725 34.3235C93.816 34.3235 96.7946 33.2525 98.3341 31.6461L95.2216 28.4666C94.2846 29.3703 92.6112 30.0062 91.239 30.0062ZM91.2055 20.5348C93.1801 20.5348 94.4519 21.6392 94.9204 23.3461H87.1894C87.8253 21.6058 89.3648 20.5348 91.2055 20.5348ZM109.404 34.3235C113.655 34.3235 116.433 32.1481 116.433 28.7344C116.433 24.9525 113.119 23.9485 110.141 23.1788C107.798 22.5429 107.095 22.2751 107.095 21.338C107.095 20.7356 107.932 20.3005 109.137 20.3005C110.609 20.3005 112.416 20.8695 113.989 21.8401L115.964 18.3594C114.056 17.0876 111.613 16.2175 109.137 16.2175C105.054 16.2175 102.343 18.5602 102.376 21.8401C102.41 25.2538 105.154 26.2243 108.702 27.0945C110.475 27.563 111.747 27.8977 111.747 28.9687C111.747 29.7384 110.81 30.2739 109.505 30.2739C107.195 30.2739 105.254 29.4372 103.715 28.3328L101.606 31.713C103.681 33.3864 106.627 34.3235 109.404 34.3235ZM128.814 29.638C128.479 29.9727 127.81 30.207 127.141 30.207C126.237 30.207 125.501 29.4037 125.501 28.2658V20.5683H129.249V16.6191H125.501V11.8667H120.815V16.6191H118.439V20.5683H120.815V29.0356C120.815 32.1481 122.957 34.3235 126.003 34.3235C127.408 34.3235 128.981 33.7211 129.985 32.8174L128.814 29.638ZM140.777 16.2175C138.367 16.2175 135.991 16.8868 133.548 18.1251L135.188 21.3715C136.56 20.6687 138.066 20.1332 139.672 20.1332C142.517 20.1332 143.655 21.7396 143.655 23.5804V23.915C142.182 23.3461 140.643 23.0449 139.237 23.0449C135.221 23.0449 132.042 25.3876 132.042 28.8013C132.042 32.1146 134.886 34.3235 138.568 34.3235C140.442 34.3235 142.417 33.5872 143.655 32.1816V33.9219H148.374V23.5804C148.374 19.0622 145.295 16.2175 140.777 16.2175ZM139.672 30.9433C137.999 30.9433 136.76 30.0731 136.76 28.6675C136.76 27.2618 138.166 26.2243 139.94 26.2243C141.279 26.2243 142.55 26.4586 143.655 26.8602V28.4666C143.32 30.0731 141.546 30.9433 139.672 30.9433ZM163.972 16.6191V26.9606L163.938 26.8602C163.938 28.7344 162.365 30.207 160.324 30.207C158.382 30.207 157.044 28.7344 157.044 26.5925V16.6191H152.325V27.63C152.325 31.5457 155.002 34.3235 158.751 34.3235C160.993 34.3235 162.934 33.3195 163.972 31.7465V33.9219H168.858V16.6191H163.972ZM177.936 19.832V16.6191H173.05V33.9219H177.936V25.6554C177.936 22.409 180.245 20.334 183.86 20.334V16.2175C181.216 16.2175 179.074 17.5897 177.936 19.832ZM194.41 16.2175C192 16.2175 189.624 16.8868 187.181 18.1251L188.821 21.3715C190.193 20.6687 191.699 20.1332 193.305 20.1332C196.15 20.1332 197.288 21.7396 197.288 23.5804V23.915C195.815 23.3461 194.276 23.0449 192.87 23.0449C188.854 23.0449 185.675 25.3876 185.675 28.8013C185.675 32.1146 188.52 34.3235 192.201 34.3235C194.075 34.3235 196.05 33.5872 197.288 32.1816V33.9219H202.007V23.5804C202.007 19.0622 198.928 16.2175 194.41 16.2175ZM193.305 30.9433C191.632 30.9433 190.394 30.0731 190.394 28.6675C190.394 27.2618 191.799 26.2243 193.573 26.2243C194.912 26.2243 196.184 26.4586 197.288 26.8602V28.4666C196.953 30.0731 195.18 30.9433 193.305 30.9433ZM216.132 16.2175C213.89 16.2175 211.949 17.2215 210.911 18.7945V16.6191H206.025V33.9219H210.911V23.5804L210.945 23.6808C210.945 21.8066 212.518 20.334 214.559 20.334C216.5 20.334 217.839 21.8066 217.839 23.9485V33.9219H222.558V22.911C222.558 18.9953 219.881 16.2175 216.132 16.2175ZM235.786 29.638C235.452 29.9727 234.782 30.207 234.113 30.207C233.209 30.207 232.473 29.4037 232.473 28.2658V20.5683H236.221V16.6191H232.473V11.8667H227.788V16.6191H225.411V20.5683H227.788V29.0356C227.788 32.1481 229.929 34.3235 232.975 34.3235C234.381 34.3235 235.954 33.7211 236.958 32.8174L235.786 29.638Z" fill="#929292"/>
</svg>
