<svg width="239" height="42" viewBox="0 0 239 42" fill="none" xmlns="http://www.w3.org/2000/svg">
<path d="M35.2125 19.392C39.0546 19.392 42.1693 15.4986 42.1693 10.696C42.1693 5.89332 39.0546 2 35.2125 2C31.3703 2 28.2557 5.89332 28.2557 10.696C28.2557 15.4986 31.3703 19.392 35.2125 19.392Z" stroke="#929292" stroke-width="3.71" stroke-linecap="round" stroke-linejoin="round"/>
<path d="M35.2125 19.3918V39.6825" stroke="#929292" stroke-width="3.71" stroke-linecap="round" stroke-linejoin="round"/>
<path d="M14.632 2V39.6826" stroke="#929292" stroke-width="3.71" stroke-linecap="round" stroke-linejoin="round"/>
<path d="M21.8786 2V9.24665C21.8786 10.1983 21.6912 11.1406 21.327 12.0198C20.9628 12.899 20.429 13.6979 19.7561 14.3708C19.0832 15.0437 18.2843 15.5775 17.4051 15.9417C16.5259 16.3059 15.5836 16.4933 14.632 16.4933C12.71 16.4933 10.8668 15.7298 9.50781 14.3708C8.1488 13.0118 7.38531 11.1686 7.38531 9.24665V2" stroke="#929292" stroke-width="3.71" stroke-linecap="round" stroke-linejoin="round"/>
<path d="M79.8974 30.9219L74.2414 22.8896C77.3873 21.7852 79.4623 19.1078 79.4623 15.6941C79.4623 11.1425 75.7809 7.92957 70.7942 7.92957H60.4527V30.9219H65.3724V23.4586H69.0204L74.2748 30.9219H79.8974ZM65.3724 12.4477H70.2587C72.7018 12.4477 74.3752 13.7195 74.3752 15.6941C74.3752 17.6687 72.7018 18.9405 70.2587 18.9405H65.3724V12.4477ZM91.1671 27.0062C89.1256 27.0062 87.6195 25.7344 87.0506 23.8602H99.534C99.534 17.334 96.3546 13.2175 90.9328 13.2175C85.8792 13.2175 82.0304 16.9993 82.0304 22.2203C82.0304 27.5416 86.0465 31.3235 91.2006 31.3235C93.7441 31.3235 96.7227 30.2525 98.2622 28.6461L95.1497 25.4666C94.2127 26.3703 92.5393 27.0062 91.1671 27.0062ZM91.1336 17.5348C93.1082 17.5348 94.38 18.6392 94.8485 20.3461H87.1175C87.7534 18.6058 89.2929 17.5348 91.1336 17.5348ZM109.332 31.3235C113.583 31.3235 116.361 29.1481 116.361 25.7344C116.361 21.9525 113.047 20.9485 110.069 20.1788C107.726 19.5429 107.023 19.2751 107.023 18.338C107.023 17.7356 107.86 17.3005 109.065 17.3005C110.537 17.3005 112.345 17.8695 113.918 18.8401L115.892 15.3594C113.984 14.0876 111.541 13.2175 109.065 13.2175C104.982 13.2175 102.271 15.5602 102.304 18.8401C102.338 22.2538 105.082 23.2243 108.63 24.0945C110.403 24.563 111.675 24.8977 111.675 25.9687C111.675 26.7384 110.738 27.2739 109.433 27.2739C107.124 27.2739 105.182 26.4372 103.643 25.3328L101.534 28.713C103.609 30.3864 106.555 31.3235 109.332 31.3235ZM128.742 26.638C128.407 26.9727 127.738 27.207 127.069 27.207C126.165 27.207 125.429 26.4037 125.429 25.2658V17.5683H129.177V13.6191H125.429V8.86666H120.743V13.6191H118.367V17.5683H120.743V26.0356C120.743 29.1481 122.885 31.3235 125.931 31.3235C127.336 31.3235 128.909 30.7211 129.913 29.8174L128.742 26.638ZM140.705 13.2175C138.295 13.2175 135.919 13.8868 133.476 15.1251L135.116 18.3715C136.488 17.6687 137.994 17.1332 139.6 17.1332C142.445 17.1332 143.583 18.7396 143.583 20.5804V20.915C142.11 20.3461 140.571 20.0449 139.165 20.0449C135.149 20.0449 131.97 22.3876 131.97 25.8013C131.97 29.1146 134.814 31.3235 138.496 31.3235C140.37 31.3235 142.345 30.5872 143.583 29.1816V30.9219H148.302V20.5804C148.302 16.0622 145.223 13.2175 140.705 13.2175ZM139.6 27.9433C137.927 27.9433 136.689 27.0731 136.689 25.6675C136.689 24.2618 138.094 23.2243 139.868 23.2243C141.207 23.2243 142.478 23.4586 143.583 23.8602V25.4666C143.248 27.0731 141.474 27.9433 139.6 27.9433ZM163.9 13.6191V23.9606L163.866 23.8602C163.866 25.7344 162.293 27.207 160.252 27.207C158.311 27.207 156.972 25.7344 156.972 23.5925V13.6191H152.253V24.63C152.253 28.5457 154.93 31.3235 158.679 31.3235C160.921 31.3235 162.862 30.3195 163.9 28.7465V30.9219H168.786V13.6191H163.9ZM177.864 16.832V13.6191H172.978V30.9219H177.864V22.6554C177.864 19.409 180.174 17.334 183.788 17.334V13.2175C181.144 13.2175 179.002 14.5897 177.864 16.832ZM194.338 13.2175C191.928 13.2175 189.552 13.8868 187.109 15.1251L188.749 18.3715C190.121 17.6687 191.627 17.1332 193.233 17.1332C196.078 17.1332 197.216 18.7396 197.216 20.5804V20.915C195.744 20.3461 194.204 20.0449 192.798 20.0449C188.782 20.0449 185.603 22.3876 185.603 25.8013C185.603 29.1146 188.448 31.3235 192.129 31.3235C194.003 31.3235 195.978 30.5872 197.216 29.1816V30.9219H201.935V20.5804C201.935 16.0622 198.856 13.2175 194.338 13.2175ZM193.233 27.9433C191.56 27.9433 190.322 27.0731 190.322 25.6675C190.322 24.2618 191.727 23.2243 193.501 23.2243C194.84 23.2243 196.112 23.4586 197.216 23.8602V25.4666C196.881 27.0731 195.108 27.9433 193.233 27.9433ZM216.06 13.2175C213.818 13.2175 211.877 14.2215 210.839 15.7945V13.6191H205.953V30.9219H210.839V20.5804L210.873 20.6808C210.873 18.8066 212.446 17.334 214.487 17.334C216.428 17.334 217.767 18.8066 217.767 20.9485V30.9219H222.486V19.911C222.486 15.9953 219.809 13.2175 216.06 13.2175ZM235.714 26.638C235.38 26.9727 234.71 27.207 234.041 27.207C233.137 27.207 232.401 26.4037 232.401 25.2658V17.5683H236.149V13.6191H232.401V8.86666H227.716V13.6191H225.339V17.5683H227.716V26.0356C227.716 29.1481 229.858 31.3235 232.903 31.3235C234.309 31.3235 235.882 30.7211 236.886 29.8174L235.714 26.638Z" fill="#929292"/>
</svg>
