<svg width="63" height="56" viewBox="0 0 63 56" fill="none" xmlns="http://www.w3.org/2000/svg">
<path d="M20.8372 32.5923C9.32856 32.5923 0 39.001 0 45.988V47.4766C0 48.9156 1.16558 50.0812 2.60465 50.0812H39.0698C40.5088 50.0812 41.6744 48.9156 41.6744 47.4766V45.988C41.6744 39.001 32.3459 32.5923 20.8372 32.5923Z" fill="#FF5634"/>
<path d="M27.3488 35.7551C27.3488 38.2256 23.6632 40.9644 20.8372 40.9644C18.0111 40.9644 14.3256 38.2256 14.3256 35.7551C14.3256 32.3209 14.3256 26.5933 14.3256 26.5933H27.3488C27.3488 26.5933 27.3488 32.3209 27.3488 35.7551Z" fill="#E8AD8C"/>
<path d="M32.4487 16.2207H31.7624V21.43H32.6779C33.3486 21.43 33.9203 21.0237 34.0336 20.4663L34.4816 18.2484C34.6965 17.1883 33.7263 16.2207 32.4487 16.2207Z" fill="#E8AD8C"/>
<path d="M9.22568 16.2207H9.91201V21.43H8.99647C8.32578 21.43 7.75406 21.0237 7.64075 20.4663L7.19275 18.2484C6.97787 17.1883 7.9481 16.2207 9.22568 16.2207Z" fill="#E8AD8C"/>
<path d="M20.8372 1.11328C15.0536 1.11328 9.11627 1.99235 9.11627 14.4947C9.11627 15.4949 9.11627 22.1484 9.11627 23.2177C9.11627 27.6807 16.1488 33.1505 20.8372 33.1505C25.5256 33.1505 32.5581 27.6807 32.5581 23.2177C32.5581 22.1484 32.5581 15.4962 32.5581 14.4947C32.5581 1.99235 26.6208 1.11328 20.8372 1.11328Z" fill="#FFE3D3"/>
<path d="M20.8372 0C15.1669 0 14.3256 2.1306 14.3256 2.1306C12.0205 2.47051 7.81396 5.84744 7.81396 9.70753C7.81396 11.8616 8.15908 13.453 9.11629 18.8238C9.82606 10.3001 12.0452 7.10288 14.3256 7.10288C15.9756 7.10288 17.2858 8.40521 20.8372 8.40521C23.8365 8.40521 24.5814 7.10288 27.3488 7.10288C31.2558 7.10288 32.5582 17.4798 32.5582 18.8238C33.3408 14.9038 33.8605 11.5894 33.8605 9.70753C33.8605 5.24186 28.9234 0 20.8372 0Z" fill="#3F3F3F"/>
<path d="M52.093 42.2674C52.093 49.4588 46.2612 55.2907 39.0698 55.2907C31.8783 55.2907 26.0465 49.4588 26.0465 42.2674C26.0465 35.076 31.8783 29.2441 39.0698 29.2441C46.2612 29.2441 52.093 35.076 52.093 42.2674Z" fill="#4CAF50"/>
<path d="M37.3064 47.9375L32.0971 42.7282C31.8431 42.4742 31.8431 42.0614 32.0971 41.8075L33.0178 40.8867C33.2718 40.6328 33.6846 40.6328 33.9386 40.8867L37.7674 44.7142L44.8508 37.6309C45.1047 37.3769 45.5175 37.3769 45.7715 37.6309L46.6922 38.5516C46.9462 38.8056 46.9462 39.2184 46.6922 39.4724L38.2271 47.9375C37.9732 48.1915 37.5616 48.1915 37.3064 47.9375Z" fill="white"/>
</svg>
