<svg width="72" height="72" viewBox="0 0 72 72" fill="none" xmlns="http://www.w3.org/2000/svg">
<path d="M43.9474 66H21.0526C19.3737 66 18 63.84 18 61.2V54H47V61.2C47 63.84 45.6263 66 43.9474 66Z" fill="#FF5634"/>
<path d="M18 52.5H46.5V58.5H18V52.5Z" fill="black" fill-opacity="0.1"/>
<path d="M52.5 22.5H13.5V49.5C13.5 52.8 16.2 55.5 19.5 55.5H46.5C49.8 55.5 52.5 52.8 52.5 49.5V22.5Z" fill="#EDEDED"/>
<path d="M46.5 6H19.5C16.2 6 13.5 8.7 13.5 12V24H52.5V12C52.5 8.7 49.8 6 46.5 6Z" fill="#929292"/>
<path d="M46.5 19.5H19.5C18.6 19.5 18 18.9 18 18V12C18 11.1 18.6 10.5 19.5 10.5H46.5C47.4 10.5 48 11.1 48 12V18C48 18.9 47.4 19.5 46.5 19.5Z" fill="#656565"/>
<path d="M42 15C42 14.1716 42.6716 13.5 43.5 13.5C44.3284 13.5 45 14.1716 45 15C45 15.8284 44.3284 16.5 43.5 16.5C42.6716 16.5 42 15.8284 42 15ZM36 15C36 14.1716 36.6716 13.5 37.5 13.5C38.3284 13.5 39 14.1716 39 15C39 15.8284 38.3284 16.5 37.5 16.5C36.6716 16.5 36 15.8284 36 15Z" fill="#CACACA"/>
<path d="M48 33H45C44.1 33 43.5 32.4 43.5 31.5V28.5C43.5 27.6 44.1 27 45 27H48C48.9 27 49.5 27.6 49.5 28.5V31.5C49.5 32.4 48.9 33 48 33Z" fill="#FF5634"/>
<path d="M21 33H18C17.1 33 16.5 32.4 16.5 31.5V28.5C16.5 27.6 17.1 27 18 27H21C21.9 27 22.5 27.6 22.5 28.5V31.5C22.5 32.4 21.9 33 21 33ZM30 33H27C26.1 33 25.5 32.4 25.5 31.5V28.5C25.5 27.6 26.1 27 27 27H30C30.9 27 31.5 27.6 31.5 28.5V31.5C31.5 32.4 30.9 33 30 33ZM21 42H18C17.1 42 16.5 41.4 16.5 40.5V37.5C16.5 36.6 17.1 36 18 36H21C21.9 36 22.5 36.6 22.5 37.5V40.5C22.5 41.4 21.9 42 21 42ZM30 42H27C26.1 42 25.5 41.4 25.5 40.5V37.5C25.5 36.6 26.1 36 27 36H30C30.9 36 31.5 36.6 31.5 37.5V40.5C31.5 41.4 30.9 42 30 42ZM21 51H18C17.1 51 16.5 50.4 16.5 49.5V46.5C16.5 45.6 17.1 45 18 45H21C21.9 45 22.5 45.6 22.5 46.5V49.5C22.5 50.4 21.9 51 21 51ZM30 51H27C26.1 51 25.5 50.4 25.5 49.5V46.5C25.5 45.6 26.1 45 27 45H30C30.9 45 31.5 45.6 31.5 46.5V49.5C31.5 50.4 30.9 51 30 51ZM39 33H36C35.1 33 34.5 32.4 34.5 31.5V28.5C34.5 27.6 35.1 27 36 27H39C39.9 27 40.5 27.6 40.5 28.5V31.5C40.5 32.4 39.9 33 39 33ZM39 42H36C35.1 42 34.5 41.4 34.5 40.5V37.5C34.5 36.6 35.1 36 36 36H39C39.9 36 40.5 36.6 40.5 37.5V40.5C40.5 41.4 39.9 42 39 42ZM39 51H36C35.1 51 34.5 50.4 34.5 49.5V46.5C34.5 45.6 35.1 45 36 45H39C39.9 45 40.5 45.6 40.5 46.5V49.5C40.5 50.4 39.9 51 39 51Z" fill="#CACACA"/>
<path d="M48 42H45C44.1 42 43.5 41.4 43.5 40.5V37.5C43.5 36.6 44.1 36 45 36H48C48.9 36 49.5 36.6 49.5 37.5V40.5C49.5 41.4 48.9 42 48 42Z" fill="#4CAF50"/>
<path d="M48 51H45C44.1 51 43.5 50.4 43.5 49.5V46.5C43.5 45.6 44.1 45 45 45H48C48.9 45 49.5 45.6 49.5 46.5V49.5C49.5 50.4 48.9 51 48 51Z" fill="#FDB52A"/>
<path d="M55.5 48H52.5V13.5H55.5C57.15 13.5 58.5 14.85 58.5 16.5V45C58.5 46.65 57.15 48 55.5 48Z" fill="#929292"/>
<path d="M36 55.5H40.5V66H36V55.5Z" fill="#3F3F3F"/>
</svg>
