<svg width="105" height="90" viewBox="0 0 105 90" fill="none" xmlns="http://www.w3.org/2000/svg">
<path d="M29.5 41.25C39.8553 41.25 48.25 32.8553 48.25 22.5C48.25 12.1447 39.8553 3.75 29.5 3.75C19.1447 3.75 10.75 12.1447 10.75 22.5C10.75 32.8553 19.1447 41.25 29.5 41.25Z" fill="#FDB52A"/>
<path d="M29.5 38.4375C38.302 38.4375 45.4375 31.302 45.4375 22.5C45.4375 13.698 38.302 6.5625 29.5 6.5625C20.698 6.5625 13.5625 13.698 13.5625 22.5C13.5625 31.302 20.698 38.4375 29.5 38.4375Z" fill="#FDB52A"/>
<path d="M34.4219 25.6425C34.4219 20.8228 27.3062 21.7641 27.3062 18.9169C27.3062 17.4309 28.9778 17.3522 29.5 17.3522C30.7563 17.3522 31.9684 17.6887 32.8928 18.1228C33.1844 18.2597 33.5191 18.0572 33.5191 17.7356V16.3331C33.5191 15.8625 33.3419 15.5841 33.0597 15.4734C32.4259 15.2278 31.5166 15.0469 30.1703 15.0028V13.4597C30.1703 13.275 30.0203 13.125 29.8356 13.125H29.1662C28.9816 13.125 28.8316 13.275 28.8316 13.4597V15.0281C26.7428 15.2306 24.5781 16.4091 24.5781 19.1494C24.5781 24.1453 31.6938 23.1544 31.6938 25.7859C31.6938 26.6128 31.165 27.3253 29.5 27.3253C27.8256 27.3253 26.2872 26.7403 25.4359 26.3053C25.1491 26.1591 24.8116 26.3709 24.8116 26.6934V28.29C24.8116 28.5966 24.9953 28.8684 25.2784 28.9875C26.2872 29.4159 27.6409 29.7403 28.8306 29.835V31.5413C28.8306 31.7259 28.9806 31.8759 29.1653 31.8759H29.8347C30.0194 31.8759 30.1694 31.7259 30.1694 31.5413V29.8397C33.2922 29.5791 34.4219 27.4875 34.4219 25.6425Z" fill="white"/>
<path d="M58.7212 14.5477L22.6049 50.664C19.3801 53.8888 19.3801 59.1174 22.6049 62.3422L47.8052 87.5425C51.03 90.7673 56.2585 90.7673 59.4834 87.5425L95.5997 51.4262C97.1363 49.8895 98.0009 47.8039 98.0009 45.6321V20.3417C98.0009 15.8343 94.313 12.1465 89.8057 12.1465H64.5173C62.3435 12.1465 60.2599 13.009 58.7212 14.5477ZM85.708 28.5369C83.4544 28.5369 81.6104 26.693 81.6104 24.4393C81.6104 22.1856 83.4544 20.3417 85.708 20.3417C87.9617 20.3417 89.8057 22.1856 89.8057 24.4393C89.8057 26.693 87.9617 28.5369 85.708 28.5369Z" fill="#FF5634"/>
<path d="M75.6711 51.2192L42.169 58.2917L38.7168 54.8395L72.1902 47.7363L75.6711 51.2192ZM50.5732 46.6914C49.1309 45.249 48.424 43.6284 48.4589 41.8316C48.4937 40.0348 49.2825 38.363 50.8273 36.8182C52.5155 35.13 54.3246 34.2592 56.2525 34.208C58.1804 34.1568 59.9281 34.9128 61.4954 36.4781C62.9951 37.9778 63.7183 39.5964 63.6692 41.3358C63.618 43.0773 62.78 44.7573 61.1553 46.382C59.4876 48.0497 57.6949 48.9082 55.7813 48.9553C53.8636 49.0024 52.1283 48.2485 50.5732 46.6914ZM52.9212 69.6113C51.4788 68.169 50.7699 66.5504 50.8068 64.7536C50.8396 62.9568 51.6304 61.285 53.1752 59.7361C54.8634 58.0499 56.6725 57.1792 58.6004 57.128C60.5284 57.0768 62.276 57.8328 63.8433 59.398C65.3512 60.908 66.0847 62.5245 66.0355 64.2496C65.9884 65.9768 65.1546 67.6506 63.5299 69.2712C61.8621 70.941 60.0653 71.8036 58.1395 71.8609C56.2136 71.9183 54.4782 71.1664 52.9212 69.6113ZM58.92 38.8834C57.5433 37.5066 55.896 37.775 53.9824 39.6906C52.1713 41.5017 51.9213 43.0629 53.2326 44.3742C54.5725 45.712 56.1849 45.4395 58.0698 43.5546C59.9096 41.7128 60.1944 40.1557 58.92 38.8834ZM61.227 61.7603C59.8584 60.3917 58.2173 60.6683 56.3037 62.5798C54.4926 64.391 54.2529 65.9604 55.5805 67.29C56.9204 68.63 58.5328 68.3575 60.4177 66.4705C61.2967 65.5936 61.7945 64.7331 61.9174 63.8952C62.0404 63.0572 61.8109 62.3442 61.227 61.7603Z" fill="white"/>
</svg>
