<svg width="239" height="40" fill="none" xmlns="http://www.w3.org/2000/svg"><path d="M7.39 27.164h34.173v4.882a4.882 4.882 0 0 1-4.882 4.882H12.272a4.882 4.882 0 0 1-4.881-4.882v-4.882Z" stroke="#929292" stroke-width="4.687" stroke-linecap="round" stroke-linejoin="round"/><path d="M17.154 2.755H31.8a9.764 9.764 0 0 1 9.764 9.764V17.4H7.391v-4.882a9.764 9.764 0 0 1 9.763-9.764ZM41.563 17.4H7.391a4.882 4.882 0 1 0 0 9.764h34.172a4.882 4.882 0 0 0 0-9.764Z" stroke="#929292" stroke-width="3.891" stroke-linecap="round" stroke-linejoin="round"/><path d="m80.041 29.922-5.656-8.032c3.146-1.105 5.221-3.782 5.221-7.196 0-4.552-3.681-7.764-8.668-7.764H60.596v22.992h4.92v-7.463h3.648l5.255 7.463h5.622ZM65.516 11.448h4.886c2.444 0 4.117 1.271 4.117 3.246s-1.673 3.246-4.117 3.246h-4.886v-6.492Zm25.795 14.558c-2.042 0-3.548-1.272-4.117-3.146h12.484c0-6.526-3.18-10.643-8.601-10.643-5.054 0-8.903 3.782-8.903 9.003 0 5.322 4.016 9.104 9.17 9.104 2.544 0 5.523-1.072 7.062-2.678l-3.113-3.18c-.937.904-2.61 1.54-3.982 1.54Zm-.034-9.471c1.975 0 3.247 1.104 3.715 2.811h-7.73c.635-1.74 2.175-2.811 4.015-2.811Zm18.199 13.788c4.251 0 7.028-2.175 7.028-5.589 0-3.782-3.313-4.786-6.291-5.555-2.343-.636-3.046-.904-3.046-1.841 0-.602.837-1.038 2.042-1.038 1.472 0 3.279.57 4.852 1.54l1.975-3.48c-1.908-1.272-4.351-2.143-6.827-2.143-4.084 0-6.794 2.343-6.761 5.623.034 3.414 2.778 4.384 6.325 5.255 1.774.468 3.046.803 3.046 1.874 0 .77-.937 1.305-2.242 1.305-2.31 0-4.251-.837-5.79-1.941l-2.109 3.38c2.075 1.673 5.02 2.61 7.798 2.61Zm19.41-4.685c-.335.335-1.004.569-1.673.569-.904 0-1.64-.803-1.64-1.941v-7.698h3.748V12.62h-3.748V7.867h-4.686v4.752h-2.376v3.95h2.376v8.467c0 3.112 2.142 5.287 5.188 5.287 1.405 0 2.978-.602 3.982-1.506l-1.171-3.179Zm11.963-13.42c-2.41 0-4.786.669-7.23 1.907l1.64 3.247c1.373-.703 2.879-1.239 4.485-1.239 2.845 0 3.983 1.607 3.983 3.447v.335c-1.473-.569-3.012-.87-4.418-.87-4.016 0-7.196 2.343-7.196 5.756 0 3.314 2.845 5.523 6.527 5.523 1.874 0 3.848-.737 5.087-2.142v1.74h4.719V19.58c0-4.518-3.079-7.362-7.597-7.362Zm-1.105 14.725c-1.673 0-2.912-.87-2.912-2.276 0-1.405 1.406-2.443 3.18-2.443 1.339 0 2.61.235 3.715.636v1.607c-.335 1.606-2.109 2.476-3.983 2.476Zm24.299-14.324v10.342l-.033-.1c0 1.873-1.573 3.346-3.615 3.346-1.941 0-3.279-1.473-3.279-3.614v-9.974h-4.719V23.63c0 3.916 2.677 6.694 6.425 6.694 2.243 0 4.184-1.005 5.221-2.578v2.176h4.887V12.619h-4.887Zm13.965 3.213v-3.213h-4.886v17.303h4.886v-8.267c0-3.246 2.309-5.321 5.924-5.321v-4.117c-2.644 0-4.786 1.373-5.924 3.615Zm16.474-3.615c-2.41 0-4.786.67-7.229 1.908l1.64 3.247c1.372-.703 2.878-1.239 4.484-1.239 2.845 0 3.983 1.607 3.983 3.447v.335c-1.473-.569-3.012-.87-4.418-.87-4.016 0-7.195 2.343-7.195 5.756 0 3.314 2.844 5.523 6.526 5.523 1.874 0 3.849-.737 5.087-2.142v1.74h4.719V19.58c0-4.518-3.079-7.362-7.597-7.362Zm-1.105 14.726c-1.673 0-2.911-.87-2.911-2.276 0-1.405 1.405-2.443 3.179-2.443 1.339 0 2.611.235 3.715.636v1.607c-.335 1.606-2.109 2.476-3.983 2.476Zm22.827-14.726c-2.242 0-4.183 1.005-5.221 2.577V12.62h-4.886v17.303h4.886V19.58l.034.1c0-1.873 1.573-3.346 3.614-3.346 1.941 0 3.28 1.473 3.28 3.614v9.974h4.719V18.91c0-3.916-2.678-6.694-6.426-6.694Zm19.654 13.421c-.334.335-1.004.569-1.673.569-.904 0-1.64-.803-1.64-1.941v-7.698h3.748V12.62h-3.748V7.867h-4.686v4.752h-2.376v3.95h2.376v8.467c0 3.112 2.142 5.287 5.188 5.287 1.406 0 2.979-.602 3.983-1.506l-1.172-3.179Z" fill="#929292"/></svg>