<svg width="102" height="90" fill="none" xmlns="http://www.w3.org/2000/svg"><path d="M36.03 90.074c6.218 0 11.259-5.04 11.259-11.259 0-6.218-5.041-11.26-11.26-11.26-6.218 0-11.259 5.042-11.259 11.26s5.041 11.26 11.26 11.26Z" fill="#3F3F3F"/><path d="M9.007 58.549h20.267a2.253 2.253 0 0 0 0-4.504H9.007a2.253 2.253 0 0 0 0 4.504Z" fill="#FF5634"/><path d="M90.074 90.074c6.219 0 11.26-5.04 11.26-11.259 0-6.218-5.041-11.26-11.26-11.26-6.218 0-11.259 5.042-11.259 11.26s5.041 11.26 11.26 11.26Z" fill="#3F3F3F"/><path d="M90.074 83.319a4.504 4.504 0 1 0 0-9.008 4.504 4.504 0 0 0 0 9.008Zm-54.044 0a4.504 4.504 0 1 0 0-9.008 4.504 4.504 0 0 0 0 9.008Z" fill="#fff"/><path d="M90.074 81.066c-.9 0-1.576-.45-2.026-1.35L79.04 61.7c-.45-1.126 0-2.477.901-2.927 1.126-.45 2.477 0 2.927.9l9.008 18.016c.45 1.125 0 2.477-.9 2.927-.226.45-.451.45-.902.45Z" fill="#E13F1F"/><path d="M42.785 78.815h27.24c2.368 0 4.215-1.949 4.74-4.257 1.8-7.912 8.633-11.182 14.634-11.957 3.152-.225 2.927-4.053 2.927-4.053-4.504-15.763-15.763-27.022-20.267-31.526h-4.503c6.568 12.7 8.505 45.663-9.008 45.037H42.785v6.756Z" fill="#E13F1F"/><path d="M54.045 51.792H31.526c-4.504 4.504-9.007 13.512-9.007 20.267 4.503 2.252 20.266 0 20.266 0h15.763c-8.726 0-11.259-12.446-4.503-20.267Z" fill="#E13F1F"/><path d="M76.563 20.266v9.008a4.517 4.517 0 0 0 4.504-4.504 4.517 4.517 0 0 0-4.504-4.504Z" fill="#FFC107"/><path d="M59.111 53.594c0 .58-.313 1.112-.833 1.369-1.572.772-5.438 2.234-12.227 2.234-9.233 0-16.214-3.153-16.214-3.153v-1.126a5.63 5.63 0 0 1 5.63-5.63h17.34c3.467 0 6.304 2.838 6.304 6.306Z" fill="#3F3F3F"/><path d="M67.574 27.87c2.826.913 5.832 1.358 8.99 1.403v-9.007a31.234 31.234 0 0 0-9.125 1.489c-1.295.412-2.135 1.67-2.135 3.028 0 1.415.925 2.655 2.27 3.088ZM36.03 63.052c-7.517 0-15.295 4.898-18.829 11.914-.94 1.868.588 3.849 2.679 3.849h28.699c1.775 0 3.248-1.453 2.902-3.194-1.442-7.25-7.721-12.57-15.451-12.57Z" fill="#FF5634"/><path d="M54.045 29.274h15.763a2.253 2.253 0 0 0 0-4.504H54.045a2.253 2.253 0 0 0 0 4.504Z" fill="#3F3F3F"/><path d="M29.274 29.274H0V50.83a3.214 3.214 0 0 0 3.214 3.214H26.06a3.214 3.214 0 0 0 3.214-3.214V29.274Z" fill="#FDB52A"/><path d="M27.131 27.022H2.143c-1.184 0-2.143.96-2.143 2.143v4.613h29.274v-4.613c0-1.184-.96-2.143-2.143-2.143Z" fill="#D99002"/><path d="M33.778 2.251H4.504v21.557a3.214 3.214 0 0 0 3.214 3.214h22.846a3.214 3.214 0 0 0 3.214-3.214V2.25Z" fill="#FDB52A"/><path d="M31.635 0H6.646C5.463 0 4.504.96 4.504 2.143v4.613h29.274V2.143C33.778.959 32.818 0 31.635 0Z" fill="#D99002"/></svg>