<svg width="239" height="45" fill="none" xmlns="http://www.w3.org/2000/svg"><path d="M21.356 3.645 5.53 33.415a3.517 3.517 0 0 0 1.48 4.783 37.7 37.7 0 0 0 33.937 0 3.516 3.516 0 0 0 1.604-4.782L26.724 3.645a3.085 3.085 0 0 0-5.368 0Z" stroke="#929292" stroke-width="3.891" stroke-linecap="round" stroke-linejoin="round"/><path d="M40.206 29.22a37.02 37.02 0 0 1-32.331 0m11.538-5.522v1.542m9.255-1.542v1.542M24.04 14.443v1.542" stroke="#929292" stroke-width="3.891" stroke-linecap="round" stroke-linejoin="round"/><path d="M79.826 31.922 74.17 23.89c3.145-1.105 5.22-3.782 5.22-7.196 0-4.551-3.68-7.764-8.668-7.764H60.381v22.992h4.92v-7.463h3.648l5.254 7.463h5.623ZM65.3 13.448h4.886c2.443 0 4.116 1.271 4.116 3.246s-1.673 3.247-4.116 3.247H65.3v-6.493Zm25.794 14.558c-2.041 0-3.547-1.272-4.116-3.146h12.483c0-6.526-3.18-10.643-8.601-10.643-5.054 0-8.902 3.782-8.902 9.003 0 5.322 4.016 9.104 9.17 9.104 2.543 0 5.522-1.071 7.061-2.678l-3.112-3.18c-.937.904-2.61 1.54-3.983 1.54Zm-.033-9.471c1.974 0 3.246 1.104 3.715 2.811h-7.731c.636-1.74 2.175-2.811 4.016-2.811Zm18.199 13.789c4.25 0 7.028-2.176 7.028-5.59 0-3.782-3.314-4.786-6.292-5.555-2.343-.636-3.046-.904-3.046-1.841 0-.602.837-1.038 2.042-1.038 1.472 0 3.28.57 4.853 1.54l1.974-3.48c-1.907-1.272-4.351-2.143-6.827-2.143-4.083 0-6.794 2.343-6.761 5.623.034 3.414 2.778 4.384 6.326 5.255 1.774.468 3.045.803 3.045 1.874 0 .77-.937 1.305-2.242 1.305-2.309 0-4.25-.837-5.79-1.941l-2.108 3.38c2.075 1.673 5.02 2.61 7.798 2.61Zm19.409-4.686c-.334.335-1.004.569-1.673.569-.904 0-1.64-.803-1.64-1.941v-7.698h3.748V14.62h-3.748V9.867h-4.686v4.752h-2.376v3.95h2.376v8.467c0 3.112 2.142 5.288 5.188 5.288 1.406 0 2.979-.603 3.983-1.507l-1.172-3.179Zm11.963-13.42c-2.41 0-4.786.669-7.229 1.907l1.64 3.247c1.372-.703 2.878-1.239 4.484-1.239 2.845 0 3.983 1.607 3.983 3.447v.335c-1.473-.569-3.012-.87-4.418-.87-4.016 0-7.195 2.343-7.195 5.756 0 3.314 2.845 5.523 6.526 5.523 1.874 0 3.849-.737 5.087-2.142v1.74h4.719V21.58c0-4.518-3.079-7.362-7.597-7.362Zm-1.105 14.725c-1.673 0-2.911-.87-2.911-2.276 0-1.405 1.405-2.443 3.179-2.443 1.339 0 2.611.235 3.715.636v1.607c-.335 1.606-2.108 2.476-3.983 2.476Zm24.3-14.324v10.342l-.034-.1c0 1.873-1.573 3.346-3.614 3.346-1.941 0-3.28-1.473-3.28-3.614v-9.974h-4.719V25.63c0 3.916 2.677 6.694 6.426 6.694 2.242 0 4.183-1.004 5.221-2.577v2.175h4.886V14.619h-4.886Zm13.964 3.213v-3.213h-4.886v17.303h4.886v-8.267c0-3.246 2.31-5.321 5.924-5.321v-4.117c-2.644 0-4.786 1.373-5.924 3.615Zm16.474-3.615c-2.41 0-4.786.67-7.229 1.908l1.64 3.247c1.372-.703 2.878-1.239 4.485-1.239 2.844 0 3.982 1.607 3.982 3.447v.335c-1.472-.569-3.012-.87-4.417-.87-4.017 0-7.196 2.343-7.196 5.756 0 3.314 2.845 5.523 6.526 5.523 1.874 0 3.849-.737 5.087-2.142v1.74h4.719V21.58c0-4.518-3.079-7.362-7.597-7.362Zm-1.104 14.726c-1.674 0-2.912-.87-2.912-2.276 0-1.405 1.406-2.443 3.179-2.443 1.339 0 2.611.235 3.715.636v1.607c-.334 1.606-2.108 2.476-3.982 2.476Zm22.826-14.726c-2.242 0-4.183 1.005-5.221 2.577V14.62h-4.886v17.303h4.886V21.58l.034.1c0-1.873 1.573-3.346 3.614-3.346 1.942 0 3.28 1.473 3.28 3.614v9.974h4.719V20.91c0-3.916-2.677-6.694-6.426-6.694Zm19.655 13.421c-.335.335-1.005.569-1.674.569-.904 0-1.64-.803-1.64-1.941v-7.698h3.749V14.62h-3.749V9.867h-4.685v4.752h-2.376v3.95h2.376v8.467c0 3.112 2.142 5.288 5.187 5.288 1.406 0 2.979-.603 3.983-1.507l-1.171-3.179Z" fill="#929292"/></svg>