<svg width="78" height="79" fill="none" xmlns="http://www.w3.org/2000/svg"><path d="M78 .95H0v78h78v-78Z" fill="#F1F1F1"/><path d="M40.078 23.24h-2.156v7.547h2.156V23.24Zm6.469 0H44.39v7.547h2.156V23.24Zm12.937 0h-2.156v7.547h2.156V23.24Zm-38.812 0h-2.157v7.547h2.157V23.24Zm6.468 0h-2.156v7.547h2.157V23.24Zm6.47 0h-2.157v7.547h2.156V23.24Zm19.406 0h-2.157v7.547h2.157V23.24Z" fill="#E13F1F"/><path d="M61.64 30.787H16.36V35.1a6.468 6.468 0 0 1 6.468 6.468v9.704h6.469v-6.47A9.703 9.703 0 0 1 39 35.1a9.703 9.703 0 0 1 9.703 9.703v6.469h6.469v-9.704a6.468 6.468 0 0 1 6.469-6.468v-4.313Z" fill="#E13F1F"/><path d="M58.406 49.114c-1.786 0-3.234-1.078-3.234-1.078s-1.448 1.078-3.234 1.078c-1.787 0-3.235-1.078-3.235-1.078s-1.448 1.078-3.234 1.078c-1.787 0-3.235-1.078-3.235-1.078S40.786 49.114 39 49.114s-3.234-1.078-3.234-1.078-1.448 1.078-3.235 1.078c-1.786 0-3.234-1.078-3.234-1.078s-1.448 1.078-3.235 1.078c-1.786 0-3.234-1.078-3.234-1.078s-1.448 1.078-3.234 1.078c-1.787 0-3.235-1.078-3.235-1.078v8.625c0 1.191.965 2.156 2.156 2.156h40.969a2.156 2.156 0 0 0 2.157-2.156v-8.625s-1.448 1.078-3.235 1.078Z" fill="#2AA4F4"/><path d="M61.64 21.083H16.36v2.156h45.28v-2.156Z" fill="#FF5634"/></svg>