<svg width="78" height="78" fill="none" xmlns="http://www.w3.org/2000/svg"><path d="M78 0H0v78h78V0Z" fill="#F1F1F1"/><path d="M52.584 43.727H24.04l-6.41 20.09h41.363l-6.41-20.09Z" fill="#FF5634"/><path d="M40.954 27.182 39.016 13.61c-.116-.813-1.29-.813-1.407 0l-1.938 13.572h5.283Zm7.786 2.699 6.039-12.307c.361-.737-.609-1.398-1.162-.792l-9.244 10.125 4.367 2.974Zm2.164 7.524 11.315-7.742c.677-.464.158-1.517-.622-1.261l-13.029 4.264 2.337 4.739Zm-1.594 7.308 13.663-1.118c.82-.067.889-1.239.085-1.403l-13.43-2.754-.319 5.275ZM32.252 26.907l-9.244-10.125c-.553-.606-1.523.055-1.162.792l6.04 12.307 4.366-2.974Zm-4.195 5.76-13.03-4.265c-.78-.256-1.3.797-.621 1.26l11.314 7.743 2.337-4.738Zm-1.059 6.771-13.43 2.754c-.805.166-.734 1.337.085 1.403l13.664 1.118-.32-5.275Z" fill="#929292"/><path d="M45.501 56.727H31.123s-11.129 0-15.265 8.273h44.909C56.63 56.727 45.5 56.727 45.5 56.727Zm-7.189-33.09c-8.609 0-14.181 4.227-14.181 13.169 0 15.82 14.181 17.558 14.181 17.558s14.182-1.738 14.182-17.558c0-8.942-5.572-13.17-14.182-13.17Z" fill="#CACACA"/><path d="M38.312 28.363c-9.742 0-11.818 6.08-11.818 11.811 0 7.818 4.23 11.825 4.23 11.825H45.9s4.23-4.007 4.23-11.825c0-5.73-2.075-11.81-11.818-11.81Z" fill="#929292"/><path d="M45.403 50.547H31.222v7.834s0 4.255 7.09 4.255c7.091 0 7.091-4.255 7.091-4.255v-7.834Z" fill="#929292"/><path d="M47.767 41.658c0-7.169-4.24-9.75-9.455-9.75s-9.454 2.581-9.454 9.75v3.25c0 7.166 4.239 13 9.454 13 5.216 0 9.455-5.834 9.455-13v-3.25Z" fill="#CACACA"/></svg>