<svg width="105" height="90" fill="none" xmlns="http://www.w3.org/2000/svg"><path d="M85.122 40.52c-.814-2.703-3.292-4.684-6.26-4.684-.038 0-.073.01-.11.01-.53-3.712-3.693-6.577-7.552-6.577-2.36 0-4.444 1.09-5.85 2.767a7.644 7.644 0 0 0-2.907-.578c-.742 0-1.447.14-2.125.337-1.465-2.791-4.357-4.715-7.726-4.715-3.279 0-6.105 1.825-7.605 4.494a6.64 6.64 0 0 0-1.15-.116 6.46 6.46 0 0 0-1.54.201c-1.204-1.449-2.997-2.39-5.028-2.39-1.37 0-2.64.42-3.693 1.138a7.574 7.574 0 0 0-3.969-1.138 7.662 7.662 0 0 0-7.662 7.661c0 .41.06.802.12 1.194-3.764.483-6.687 3.664-6.687 7.563a7.662 7.662 0 0 0 7.662 7.661c.374 0 .733-.059 1.095-.109v.11H81.05v-.403a6.485 6.485 0 0 0 2.19.402 6.567 6.567 0 0 0 6.567-6.567c0-2.968-1.981-5.446-4.685-6.26Z" fill="#EDEDED"/><path d="M69.453 36.171 88.419 9.567l3.577 2.524-18.487 25.934h-3.513c-.095-.652-.296-1.265-.543-1.854Zm-2.741-3.413L81.05 5.031 77.171 3 62.454 31.46a7.62 7.62 0 0 1 4.258 1.298Z" fill="#FF5634"/><path d="M70.335 43.618a2.188 2.188 0 1 1 3.916 1.95l-1.957 3.915a2.188 2.188 0 1 1-3.916-1.95l1.957-3.915Zm-26.742-.552a2.19 2.19 0 0 0 .04 3.096 2.191 2.191 0 0 0 3.097-.042l3.054-3.139a2.187 2.187 0 0 0-.044-3.095 2.185 2.185 0 0 0-3.095.041l-3.052 3.14ZM31.901 35.98a2.185 2.185 0 0 0-3.03.633 2.183 2.183 0 0 0 .633 3.028l3.66 2.403a2.188 2.188 0 0 0 3.032-.632 2.18 2.18 0 0 0-.632-3.028L31.9 35.98Zm26.27.215a2.188 2.188 0 1 0-2.397 3.66l3.66 2.4a2.187 2.187 0 0 0 3.031-.629 2.185 2.185 0 0 0-.633-3.032l-3.662-2.399Z" fill="#CACACA"/><path d="M11 46.781h83.185s-.147 35.025-41.593 35.025C11.147 81.806 11 46.781 11 46.781Z" fill="#FDB52A"/><path d="M37.269 79.618h30.647v6.567H37.269v-6.567Z" fill="#D68D00"/></svg>