<svg width="105" height="90" fill="none" xmlns="http://www.w3.org/2000/svg"><path d="M80.192 44.013s4.73-8.453 5.166-13.224c.138-1.496-.398-2.97-1.647-3.803l-1.039-.692a3.814 3.814 0 0 1-1.625-3.925l.81-2.712a3.815 3.815 0 0 0-2.995-4.49l-2.907-.254a3.818 3.818 0 0 1-2.954-2.817 3.815 3.815 0 0 0-5.409-2.488l-.243.122c-1.47.734-3.392.193-4.555-.969l-.161-.162a3.815 3.815 0 0 0-5.752.407s-2.783 3.692-4.523 3.692c-3.742 7.38-1.741 33.055-1.741 33.055l27.725 2.501 1.85-4.241Z" fill="#689F38"/><path d="M76.714 61.41V44.013c0-6.833-5.22-6.16-5.22-20.876h-8.698c0 14.716-5.219 14.043-5.219 20.876V61.41h19.137Z" fill="#FAFAFA"/><path d="M71.495 26.616h-8.699c-.957 0-1.74-.783-1.74-1.74v-1.74c0-.957.783-1.74 1.74-1.74h8.699c.956 0 1.74.783 1.74 1.74v1.74c0 .957-.784 1.74-1.74 1.74Z" fill="#FDB52A"/><path d="M73.234 44.013c0-1.865-.51-2.778-1.435-4.438-.83-1.488-1.814-3.283-2.573-6h-4.16c-.758 2.717-1.743 4.512-2.573 6-.927 1.66-1.437 2.573-1.437 4.438V57.93h12.178V44.013Z" fill="#FAFAFA"/><path d="M40.182 16.178C40.274 9.162 43.272 4 47.14 4c3.869 0 6.958 5.162 6.958 12.178 0 4.836-3.09 8.698-6.958 8.698-3.87 0-7.024-3.863-6.96-8.698Z" fill="#FFD54F"/><path d="M40.182 16.178h13.917v31.314H40.182V16.178Z" fill="#FFD54F"/><path d="M41.921 26.62s1.523-3.806 4.311-6.363c2.79-2.557 6.128-2.335 6.128-2.335s-1.587 3.7-4.376 6.256c-2.788 2.556-6.063 2.443-6.063 2.443Zm0 12.177s1.523-3.806 4.311-6.364c2.79-2.555 6.128-2.334 6.128-2.334s-1.587 3.7-4.376 6.256c-2.788 2.557-6.063 2.442-6.063 2.442Z" fill="#FFB300"/><path d="M42.412 51.734 36.767 76.4a3.479 3.479 0 0 0 3.415 4.146h41.75a3.48 3.48 0 0 0 3.444-3.972L82.464 56.19l-40.052-4.457Z" fill="#FFAB40"/><path d="m80.192 70.312 5.194-26.264a1.5 1.5 0 0 0-1.475-1.775H38.204a1.5 1.5 0 0 0-1.486 1.712l3.464 22.644 40.01 3.683Z" fill="#FFAB40"/><path d="m73.233 57.06 9.584 1.598-.134-.938.455-2.31-9.905 1.65Zm-24.351 5.28-9.601-1.598.428 2.8-.079.342 9.252-1.543Z" fill="#FB8C00"/><path d="M35.68 53.633a16.68 16.68 0 1 0 0 33.36 16.68 16.68 0 0 0 0-33.36Z" fill="#4CAF50"/><path d="M44.087 62.835 33.308 73.627 28.86 69.19l-2.246 2.248 6.697 6.682 13.024-13.037-2.248-2.247Z" fill="#fff"/></svg>