<svg width="72" height="72" fill="none" xmlns="http://www.w3.org/2000/svg"><path d="M54 13.5H18v51a3 3 0 0 0 3 3h30a3 3 0 0 0 3-3v-51Z" fill="#EDEDED"/><path d="M54 13.5H18V9a3 3 0 0 1 3-3h30a3 3 0 0 1 3 3v4.5Z" fill="#CACACA"/><path d="M30 10.875a1.125 1.125 0 1 0 0-2.25 1.125 1.125 0 0 0 0 2.25Zm11.25-2.25h-7.5a1.125 1.125 0 0 0 0 2.25h7.5a1.125 1.125 0 0 0 0-2.25Z" fill="#929292"/><path d="M43.538 43.348c4.05-4.163 3.958-10.82-.206-14.87-4.164-4.05-10.82-3.958-14.87.206-3.97 4.082-3.97 10.582 0 14.665.011.011.018.025.029.035l.035.035c.026.028.055.055.082.082l6.565 6.566a1.168 1.168 0 0 0 1.652 0l6.567-6.568.082-.082.035-.035c.012-.011.018-.023.029-.034Z" fill="#FF5634"/><path d="M36 40.698a4.674 4.674 0 1 0 0-9.348 4.674 4.674 0 0 0 0 9.348Z" fill="#F9F9F9"/></svg>