<svg width="105" height="90" fill="none" xmlns="http://www.w3.org/2000/svg"><path d="M29.5 41.25c10.355 0 18.75-8.395 18.75-18.75S39.855 3.75 29.5 3.75 10.75 12.145 10.75 22.5s8.395 18.75 18.75 18.75Z" fill="#FDB52A"/><path d="M29.5 38.438c8.802 0 15.938-7.136 15.938-15.938S38.301 6.562 29.5 6.562 13.562 13.698 13.562 22.5 20.698 38.438 29.5 38.438Z" fill="#FDB52A"/><path d="M34.422 25.642c0-4.82-7.116-3.878-7.116-6.725 0-1.486 1.672-1.565 2.194-1.565 1.256 0 2.468.337 3.393.77a.434.434 0 0 0 .626-.386v-1.403c0-.47-.177-.749-.46-.86-.633-.245-1.542-.426-2.889-.47V13.46a.335.335 0 0 0-.334-.335h-.67a.335.335 0 0 0-.334.335v1.568c-2.09.203-4.254 1.381-4.254 4.121 0 4.996 7.116 4.005 7.116 6.637 0 .827-.529 1.54-2.194 1.54-1.674 0-3.213-.586-4.064-1.02a.43.43 0 0 0-.624.387v1.597c0 .307.183.578.466.698 1.01.428 2.363.752 3.553.847v1.706c0 .185.15.335.334.335h.67c.184 0 .334-.15.334-.335V29.84c3.123-.26 4.253-2.352 4.253-4.198Z" fill="#fff"/><path d="M58.721 14.548 22.605 50.664a8.258 8.258 0 0 0 0 11.678l25.2 25.2a8.258 8.258 0 0 0 11.678 0L95.6 51.427a8.198 8.198 0 0 0 2.4-5.794v-25.29c0-4.508-3.687-8.195-8.194-8.195H64.517a8.194 8.194 0 0 0-5.796 2.4Zm26.987 13.989a4.11 4.11 0 0 1-4.098-4.098 4.11 4.11 0 0 1 4.098-4.097 4.11 4.11 0 0 1 4.098 4.097 4.11 4.11 0 0 1-4.098 4.098Z" fill="#FF5634"/><path d="M75.671 51.22 42.17 58.291l-3.452-3.453 33.473-7.103 3.481 3.483Zm-25.098-4.53c-1.442-1.442-2.149-3.063-2.114-4.86.035-1.796.823-3.468 2.368-5.013 1.689-1.688 3.498-2.559 5.425-2.61 1.928-.051 3.676.705 5.243 2.27 1.5 1.5 2.223 3.118 2.174 4.858-.051 1.741-.889 3.421-2.514 5.046-1.667 1.668-3.46 2.526-5.374 2.573-1.917.047-3.653-.706-5.208-2.264Zm2.348 22.92c-1.442-1.442-2.151-3.06-2.114-4.857.033-1.797.823-3.469 2.368-5.018 1.688-1.686 3.498-2.557 5.425-2.608 1.928-.051 3.676.705 5.243 2.27 1.508 1.51 2.242 3.127 2.192 4.852-.047 1.727-.88 3.4-2.505 5.021-1.668 1.67-3.465 2.533-5.39 2.59-1.926.057-3.662-.695-5.219-2.25Zm5.999-30.728c-1.377-1.376-3.024-1.108-4.938.808-1.81 1.81-2.06 3.372-.75 4.683 1.34 1.338 2.953 1.066 4.838-.82 1.84-1.841 2.124-3.398.85-4.67Zm2.307 22.877c-1.369-1.368-3.01-1.092-4.923.82-1.811 1.811-2.051 3.38-.724 4.71 1.34 1.34 2.953 1.067 4.838-.82.879-.876 1.377-1.737 1.5-2.575.122-.838-.107-1.55-.691-2.135Z" fill="#fff"/></svg>