<svg width="72" height="72" fill="none" xmlns="http://www.w3.org/2000/svg"><path d="M54 13.5H18v51a3 3 0 0 0 3 3h30a3 3 0 0 0 3-3v-51Z" fill="#EDEDED"/><path d="M54 13.5H18V9a3 3 0 0 1 3-3h30a3 3 0 0 1 3 3v4.5Z" fill="#CACACA"/><path d="M30 10.875a1.125 1.125 0 1 0 0-2.25 1.125 1.125 0 0 0 0 2.25Zm11.25-2.25h-7.5a1.125 1.125 0 0 0 0 2.25h7.5a1.125 1.125 0 0 0 0-2.25Z" fill="#929292"/><path d="M36.942 28.9c-.534-.534-1.334-.534-1.866 0l-8.667 8.668c-.534.534-.534 1.333 0 1.866.267.267.6.4.933.4.333 0 .666-.134.933-.4l8.667-8.667a1.29 1.29 0 0 0 0-1.866Z" fill="#656565"/><path d="m45.942 37.9-9-9c-.534-.534-1.334-.534-1.866 0-.534.535-.534 1.334 0 1.867l9 9c.267.266.6.4.933.4.333 0 .666-.134.933-.4a1.29 1.29 0 0 0 0-1.867Z" fill="#656565"/><path d="m49.081 38.673-.273 1.827-.04.267-1.566 10.486a1.47 1.47 0 0 1-1.453 1.247H26.267a1.47 1.47 0 0 1-1.454-1.246L23.26 40.767l-.04-.267-.273-1.827a.728.728 0 0 1 .726-.84h24.68c.455 0 .795.393.727.84Z" fill="#4CAF50"/><path d="M33.675 51.166a1 1 0 0 1-1-1v-7.333a1.001 1.001 0 0 1 2 0v7.333a1 1 0 0 1-1 1Zm-4.666 0a1 1 0 0 1-1.001-1v-7.333a1.001 1.001 0 0 1 2.001 0v7.333a1 1 0 0 1-1 1Zm9.333 0a1 1 0 0 1-1.001-1v-7.333a1.001 1.001 0 0 1 2.001 0v7.333a1 1 0 0 1-1 1Zm4.666 0a1 1 0 0 1-1-1v-7.333a1.001 1.001 0 0 1 2 0v7.333a1 1 0 0 1-1 1Z" fill="#000" fill-opacity=".24"/></svg>