<svg width="72" height="72" fill="none" xmlns="http://www.w3.org/2000/svg"><path d="M54 13.5H18v51a3 3 0 0 0 3 3h30a3 3 0 0 0 3-3v-51Z" fill="#EDEDED"/><path d="M54 13.5H18V9a3 3 0 0 1 3-3h30a3 3 0 0 1 3 3v4.5Z" fill="#CACACA"/><path d="M30 10.875a1.125 1.125 0 1 0 0-2.25 1.125 1.125 0 0 0 0 2.25Zm11.25-2.25h-7.5a1.125 1.125 0 0 0 0 2.25h7.5a1.125 1.125 0 0 0 0-2.25Z" fill="#929292"/><path d="M45.333 51H26.667a1.17 1.17 0 0 1-1.167-1.167V31.167A1.17 1.17 0 0 1 26.667 30h18.666a1.17 1.17 0 0 1 1.167 1.167v18.666A1.17 1.17 0 0 1 45.333 51Z" fill="#FDB52A"/><path opacity=".8" d="M31 33a1 1 0 0 1 1-1h8a1 1 0 1 1 0 2h-8a1 1 0 0 1-1-1Z" fill="#fff"/></svg>