<svg width="105" height="90" fill="none" xmlns="http://www.w3.org/2000/svg"><g clip-path="url(#a)"><path d="M5 27.5h95V75H5V27.5Z" fill="#EDEDED"/><path d="M5 75h95v5a5.002 5.002 0 0 1-3.086 4.62A4.998 4.998 0 0 1 95 85H10a4.998 4.998 0 0 1-5-5v-5Z" fill="#CACACA"/><path d="M60.5 45a2 2 0 0 1 2-2h23a2 2 0 0 1 2 2v38a2 2 0 0 1-2 2h-23a2 2 0 0 1-2-2V45Z" fill="#656565"/><path d="M48 42.5H17a2 2 0 0 0-2 2v21a2 2 0 0 0 2 2h31a2 2 0 0 0 2-2v-21a2 2 0 0 0-2-2Z" fill="#929292"/><path d="M97.5 20h-90L0 27.5V30a4.998 4.998 0 0 0 5 5h95a5 5 0 0 0 5-5v-2.5L97.5 20Z" fill="#E13F1F"/><path d="M105 27.5H0L4.575 6.95A2.49 2.49 0 0 1 7 5h91a2.49 2.49 0 0 1 2.425 1.95L105 27.5Z" fill="#FF5634"/><path d="M87.5 75h-27v10h27V75Z" fill="#656565"/></g><defs><clipPath id="a"><path fill="#fff" d="M0 0h105v90H0z"/></clipPath></defs></svg>