<svg width="72" height="72" fill="none" xmlns="http://www.w3.org/2000/svg"><path d="M43.947 66H21.053C19.373 66 18 63.84 18 61.2V54h29v7.2c0 2.64-1.374 4.8-3.053 4.8Z" fill="#FF5634"/><path d="M18 52.5h28.5v6H18v-6Z" fill="#000" fill-opacity=".1"/><path d="M52.5 22.5h-39v27c0 3.3 2.7 6 6 6h27c3.3 0 6-2.7 6-6v-27Z" fill="#EDEDED"/><path d="M46.5 6h-27c-3.3 0-6 2.7-6 6v12h39V12c0-3.3-2.7-6-6-6Z" fill="#929292"/><path d="M46.5 19.5h-27c-.9 0-1.5-.6-1.5-1.5v-6c0-.9.6-1.5 1.5-1.5h27c.9 0 1.5.6 1.5 1.5v6c0 .9-.6 1.5-1.5 1.5Z" fill="#656565"/><path d="M42 15a1.5 1.5 0 1 1 3 0 1.5 1.5 0 0 1-3 0Zm-6 0a1.5 1.5 0 1 1 3 0 1.5 1.5 0 0 1-3 0Z" fill="#CACACA"/><path d="M48 33h-3c-.9 0-1.5-.6-1.5-1.5v-3c0-.9.6-1.5 1.5-1.5h3c.9 0 1.5.6 1.5 1.5v3c0 .9-.6 1.5-1.5 1.5Z" fill="#FF5634"/><path d="M21 33h-3c-.9 0-1.5-.6-1.5-1.5v-3c0-.9.6-1.5 1.5-1.5h3c.9 0 1.5.6 1.5 1.5v3c0 .9-.6 1.5-1.5 1.5Zm9 0h-3c-.9 0-1.5-.6-1.5-1.5v-3c0-.9.6-1.5 1.5-1.5h3c.9 0 1.5.6 1.5 1.5v3c0 .9-.6 1.5-1.5 1.5Zm-9 9h-3c-.9 0-1.5-.6-1.5-1.5v-3c0-.9.6-1.5 1.5-1.5h3c.9 0 1.5.6 1.5 1.5v3c0 .9-.6 1.5-1.5 1.5Zm9 0h-3c-.9 0-1.5-.6-1.5-1.5v-3c0-.9.6-1.5 1.5-1.5h3c.9 0 1.5.6 1.5 1.5v3c0 .9-.6 1.5-1.5 1.5Zm-9 9h-3c-.9 0-1.5-.6-1.5-1.5v-3c0-.9.6-1.5 1.5-1.5h3c.9 0 1.5.6 1.5 1.5v3c0 .9-.6 1.5-1.5 1.5Zm9 0h-3c-.9 0-1.5-.6-1.5-1.5v-3c0-.9.6-1.5 1.5-1.5h3c.9 0 1.5.6 1.5 1.5v3c0 .9-.6 1.5-1.5 1.5Zm9-18h-3c-.9 0-1.5-.6-1.5-1.5v-3c0-.9.6-1.5 1.5-1.5h3c.9 0 1.5.6 1.5 1.5v3c0 .9-.6 1.5-1.5 1.5Zm0 9h-3c-.9 0-1.5-.6-1.5-1.5v-3c0-.9.6-1.5 1.5-1.5h3c.9 0 1.5.6 1.5 1.5v3c0 .9-.6 1.5-1.5 1.5Zm0 9h-3c-.9 0-1.5-.6-1.5-1.5v-3c0-.9.6-1.5 1.5-1.5h3c.9 0 1.5.6 1.5 1.5v3c0 .9-.6 1.5-1.5 1.5Z" fill="#CACACA"/><path d="M48 42h-3c-.9 0-1.5-.6-1.5-1.5v-3c0-.9.6-1.5 1.5-1.5h3c.9 0 1.5.6 1.5 1.5v3c0 .9-.6 1.5-1.5 1.5Z" fill="#4CAF50"/><path d="M48 51h-3c-.9 0-1.5-.6-1.5-1.5v-3c0-.9.6-1.5 1.5-1.5h3c.9 0 1.5.6 1.5 1.5v3c0 .9-.6 1.5-1.5 1.5Z" fill="#FDB52A"/><path d="M55.5 48h-3V13.5h3c1.65 0 3 1.35 3 3V45c0 1.65-1.35 3-3 3Z" fill="#929292"/><path d="M36 55.5h4.5V66H36V55.5Z" fill="#3F3F3F"/></svg>