<svg width="63" height="56" fill="none" xmlns="http://www.w3.org/2000/svg"><path d="M20.837 32.592C9.33 32.592 0 39.001 0 45.988v1.489a2.604 2.604 0 0 0 2.605 2.604H39.07a2.604 2.604 0 0 0 2.604-2.604v-1.489c0-6.987-9.328-13.396-20.837-13.396Z" fill="#FF5634"/><path d="M27.349 35.755c0 2.47-3.686 5.21-6.512 5.21-2.826 0-6.511-2.74-6.511-5.21v-9.162h13.023v9.162Zm5.1-19.535h-.687v5.21h.916c.67 0 1.242-.406 1.356-.964l.448-2.218c.215-1.06-.756-2.027-2.033-2.027Zm-23.223 0h.686v5.21h-.916c-.67 0-1.242-.406-1.355-.964l-.448-2.218c-.215-1.06.755-2.027 2.033-2.027Z" fill="#E8AD8C"/><path d="M20.837 1.113c-5.783 0-11.72.88-11.72 13.382v8.723c0 4.463 7.032 9.933 11.72 9.933 4.689 0 11.721-5.47 11.721-9.933v-8.723c0-12.503-5.937-13.382-11.72-13.382Z" fill="#FFE3D3"/><path d="M20.837 0c-5.67 0-6.511 2.13-6.511 2.13-2.306.34-6.512 3.717-6.512 7.578 0 2.154.345 3.745 1.302 9.116.71-8.524 2.93-11.721 5.21-11.721 1.65 0 2.96 1.302 6.511 1.302 3 0 3.744-1.302 6.512-1.302 3.907 0 5.21 10.377 5.21 11.72.782-3.92 1.302-7.234 1.302-9.115C33.86 5.242 28.923 0 20.837 0Z" fill="#3F3F3F"/><path d="M52.093 42.267c0 7.192-5.832 13.024-13.023 13.024-7.192 0-13.023-5.832-13.023-13.024 0-7.191 5.831-13.023 13.023-13.023 7.191 0 13.023 5.832 13.023 13.023Z" fill="#4CAF50"/><path d="m37.306 47.938-5.209-5.21a.651.651 0 0 1 0-.92l.92-.921a.652.652 0 0 1 .922 0l3.828 3.827 7.084-7.083a.651.651 0 0 1 .92 0l.921.92a.652.652 0 0 1 0 .921l-8.465 8.465a.651.651 0 0 1-.92 0Z" fill="#fff"/></svg>