<svg width="78" height="78" fill="none" xmlns="http://www.w3.org/2000/svg"><path d="M78 0H0v78h78V0Z" fill="#F1F1F1"/><path d="M16.961 54.66C29.727 50.683 32.66 27.981 32.66 27.981l1.264-.002s.436 17.4-6.523 26.68H16.96Z" fill="#E8AD8C"/><path d="m33.2 28.177 11.6-11.599a9.651 9.651 0 0 0-11.6 9.455v2.144Z" fill="#4CAF50"/><path d="M33.2 27.98h18.528c-2.117-2.812-5.473-4.64-9.263-4.64-3.791 0-7.148 1.828-9.265 4.64Zm1.97 0h-2.158l12.76 12.76a10.8 10.8 0 0 0 .188-1.97c0-5.96-4.831-10.79-10.79-10.79Z" fill="#4CAF50"/><path d="M33.2 28.177 21.6 16.578a9.651 9.651 0 0 1 11.6 9.455v2.144Z" fill="#4CAF50"/><path d="M33.2 27.98H14.672c2.117-2.812 5.473-4.64 9.264-4.64 3.79 0 7.147 1.828 9.264 4.64Zm-1.97 0h2.158l-12.76 12.76a10.8 10.8 0 0 1-.187-1.97c0-5.96 4.831-10.79 10.79-10.79Z" fill="#4CAF50"/><path d="m37.027 53.143 15.892 8.475H16.961a2.32 2.32 0 0 1-2.32-2.32v-6.96h19.17a6.83 6.83 0 0 1 3.216.805Z" fill="#FDB52A"/><path d="M59.88 53.499c-1.923 0-3.48-1.16-3.48-1.16s-1.559 1.16-3.48 1.16c-1.923 0-3.48-1.16-3.48-1.16s-1.558 1.16-3.48 1.16-3.48-1.16-3.48-1.16-1.558 1.16-3.48 1.16c-.819 0-1.562-.213-2.157-.455l16.076 8.574h8.12a2.32 2.32 0 0 0 2.32-2.32v-6.96s-1.558 1.16-3.48 1.16Z" fill="#2AA4F4"/></svg>