<svg width="105" height="90" fill="none" xmlns="http://www.w3.org/2000/svg"><path d="M29.16 19.615c-3.127 0-5.654-1.01-7.683-1.825-3.237-1.297-4.645-1.742-7.029.164a2.308 2.308 0 0 1-2.885-3.602c4.584-3.668 8.327-2.168 11.629-.845C25.027 14.24 26.922 15 29.16 15a2.307 2.307 0 1 1 0 4.615Z" fill="#E13F1F"/><path d="M33.775 23.076h-9.23v-6.923a2.309 2.309 0 0 1 2.307-2.307h4.615a2.309 2.309 0 0 1 2.308 2.307v6.924Z" fill="#FF5634"/><path d="M38.39 30H19.93v-6.923a2.309 2.309 0 0 1 2.308-2.308h13.846a2.309 2.309 0 0 1 2.308 2.308V30Z" fill="#E13F1F"/><path d="M45.314 41.538H13.006v-9.23a4.614 4.614 0 0 1 4.615-4.616h23.077a4.614 4.614 0 0 1 4.616 4.616v9.23Z" fill="#FF5634"/><path d="M68.806 31.154a28.231 28.231 0 0 0-.83-1.915l-.762-1.547-.554-1.13-1.708-3.485H44.137l-1.708 3.485-.554 1.13-.761 1.547c-.3.623-.577 1.269-.831 1.915a26.989 26.989 0 0 0-1.892 9.923v1.616h32.307v-1.616a26.99 26.99 0 0 0-1.892-9.923Z" fill="#F9F9F9"/><path d="M67.214 27.692H41.875l.554-1.13 1.708-3.485L48.083 15h12.923l3.946 8.077 1.708 3.484.554 1.131Z" fill="#CACACA"/><path d="M48.775 16.154h11.539a3.463 3.463 0 0 0 0-6.924H48.775a3.463 3.463 0 0 0 0 6.923Z" fill="#656565"/><path d="M91.468 41.538h-20.77V10.386C70.698 4.65 75.348 0 81.083 0c5.734 0 10.385 4.65 10.385 10.385v31.154Z" fill="#FFCF7B"/><path d="M83.153 17.07c-2.2 2.2-5.033 3.221-6.702 3.658-.74.2-1.306-.367-1.105-1.106.034-.117.07-.249.104-.38.484-1.688 1.513-4.281 3.553-6.321s4.62-3.07 6.314-3.547c.139-.042.27-.076.388-.111.74-.2 1.306.367 1.105 1.105-.433 1.669-1.458 4.503-3.657 6.702Zm0 16.154c-2.2 2.2-5.033 3.222-6.702 3.658-.74.2-1.306-.367-1.105-1.105.034-.118.07-.25.104-.381.484-1.687 1.513-4.281 3.553-6.321s4.62-3.07 6.314-3.547c.139-.041.27-.076.388-.11.74-.201 1.306.366 1.105 1.105-.433 1.668-1.458 4.502-3.657 6.701Z" fill="#E38101"/><path d="m97.49 42.138-.946 6.323-.138.923-5.423 36.3A5.087 5.087 0 0 1 85.953 90H18.52a5.087 5.087 0 0 1-5.03-4.316l-5.377-36.3-.139-.923-.946-6.323a2.521 2.521 0 0 1 2.515-2.907h85.431a2.521 2.521 0 0 1 2.516 2.907Z" fill="#4CAF50"/><path d="m97.49 42.138-.946 6.323H7.975l-.946-6.323a2.521 2.521 0 0 1 2.515-2.907h85.431a2.521 2.521 0 0 1 2.516 2.907Z" fill="#53D158"/><path d="M44.16 85.385a3.463 3.463 0 0 1-3.462-3.462V56.54a3.463 3.463 0 0 1 6.923 0v25.384a3.462 3.462 0 0 1-3.461 3.462Zm-16.154 0a3.463 3.463 0 0 1-3.462-3.462V56.54a3.463 3.463 0 0 1 6.923 0v25.384a3.462 3.462 0 0 1-3.461 3.462Zm32.308 0a3.463 3.463 0 0 1-3.462-3.462V56.54a3.463 3.463 0 0 1 6.923 0v25.384a3.462 3.462 0 0 1-3.461 3.462Zm16.153 0a3.463 3.463 0 0 1-3.461-3.462V56.54a3.462 3.462 0 0 1 6.923 0v25.384a3.463 3.463 0 0 1-3.462 3.462Z" fill="#000" fill-opacity=".18"/></svg>