<svg width="239" height="43" fill="none" xmlns="http://www.w3.org/2000/svg"><path d="M22.977 39.954a18.767 18.767 0 0 0 18.766-18.767H4.21a18.767 18.767 0 0 0 18.767 18.767Zm1.443-24.541 8.662-12.992m-4.331 14.436 10.105-8.662" stroke="#929292" stroke-width="4.5" stroke-linecap="round" stroke-linejoin="round"/><path d="m79.97 33.922-5.657-8.032c3.146-1.105 5.221-3.782 5.221-7.196 0-4.551-3.681-7.764-8.668-7.764H60.525v22.992h4.92v-7.463h3.647l5.255 7.463h5.622ZM65.443 15.448h4.887c2.443 0 4.116 1.271 4.116 3.246s-1.673 3.247-4.116 3.247h-4.887v-6.493ZM91.24 30.006c-2.041 0-3.548-1.272-4.117-3.146h12.484c0-6.526-3.18-10.642-8.601-10.642-5.054 0-8.903 3.781-8.903 9.002 0 5.322 4.016 9.104 9.17 9.104 2.544 0 5.523-1.072 7.062-2.678l-3.112-3.18c-.937.904-2.61 1.54-3.983 1.54Zm-.034-9.471c1.975 0 3.247 1.104 3.715 2.811h-7.73c.635-1.74 2.175-2.811 4.016-2.811Zm18.199 13.789c4.251 0 7.029-2.176 7.029-5.59 0-3.782-3.314-4.786-6.292-5.555-2.343-.636-3.046-.904-3.046-1.841 0-.602.837-1.038 2.042-1.038 1.472 0 3.279.57 4.852 1.54l1.975-3.48c-1.908-1.272-4.351-2.142-6.827-2.142-4.083 0-6.794 2.342-6.761 5.622.034 3.414 2.778 4.384 6.326 5.255 1.773.468 3.045.803 3.045 1.874 0 .77-.937 1.305-2.242 1.305-2.31 0-4.251-.837-5.79-1.941l-2.109 3.38c2.075 1.673 5.021 2.61 7.798 2.61Zm19.41-4.686c-.335.335-1.004.569-1.673.569-.904 0-1.64-.803-1.64-1.941v-7.698h3.748V16.62h-3.748v-4.752h-4.686v4.752h-2.376v3.95h2.376v8.467c0 3.112 2.142 5.288 5.188 5.288 1.405 0 2.978-.603 3.982-1.507l-1.171-3.179Zm11.963-13.42c-2.41 0-4.786.669-7.229 1.907l1.64 3.247c1.372-.703 2.878-1.239 4.484-1.239 2.845 0 3.983 1.607 3.983 3.447v.335c-1.473-.569-3.012-.87-4.418-.87-4.016 0-7.195 2.343-7.195 5.756 0 3.314 2.844 5.523 6.526 5.523 1.874 0 3.849-.737 5.087-2.142v1.74h4.719V23.58c0-4.518-3.079-7.362-7.597-7.362Zm-1.105 14.725c-1.673 0-2.912-.87-2.912-2.276 0-1.405 1.406-2.443 3.18-2.443 1.339 0 2.61.235 3.715.636v1.607c-.335 1.606-2.109 2.476-3.983 2.476Zm24.3-14.324v10.342l-.034-.1c0 1.873-1.573 3.346-3.614 3.346-1.942 0-3.28-1.473-3.28-3.614v-9.974h-4.719V27.63c0 3.916 2.677 6.694 6.426 6.694 2.242 0 4.183-1.005 5.221-2.577v2.175h4.886V16.619h-4.886Zm13.964 3.213v-3.213h-4.886v17.303h4.886v-8.267c0-3.246 2.309-5.321 5.924-5.321v-4.116c-2.644 0-4.786 1.372-5.924 3.614Zm16.474-3.614c-2.41 0-4.786.669-7.229 1.907l1.64 3.247c1.372-.703 2.878-1.239 4.484-1.239 2.845 0 3.983 1.607 3.983 3.447v.335c-1.473-.569-3.012-.87-4.418-.87-4.016 0-7.195 2.343-7.195 5.756 0 3.314 2.845 5.523 6.526 5.523 1.874 0 3.849-.737 5.087-2.142v1.74h4.719V23.58c0-4.518-3.079-7.362-7.597-7.362Zm-1.105 14.725c-1.673 0-2.911-.87-2.911-2.276 0-1.405 1.405-2.443 3.179-2.443 1.339 0 2.611.235 3.715.636v1.607c-.335 1.606-2.108 2.476-3.983 2.476Zm22.827-14.726c-2.242 0-4.183 1.005-5.221 2.578v-2.176h-4.886v17.303h4.886V23.58l.034.1c0-1.873 1.573-3.346 3.614-3.346 1.941 0 3.28 1.473 3.28 3.614v9.974h4.719V22.91c0-3.916-2.677-6.694-6.426-6.694Zm19.654 13.421c-.334.335-1.004.569-1.673.569-.904 0-1.64-.803-1.64-1.941v-7.698h3.748V16.62h-3.748v-4.752h-4.685v4.752h-2.377v3.95h2.377v8.467c0 3.112 2.141 5.288 5.187 5.288 1.406 0 2.979-.603 3.983-1.507l-1.172-3.179Z" fill="#929292"/></svg>