<svg width="161" height="48" fill="none" xmlns="http://www.w3.org/2000/svg"><g clip-path="url(#a)"><path d="M28.463 9.651a9.652 9.652 0 1 0-19.302 0h3.853a5.797 5.797 0 0 1 11.596 0h3.853Z" fill="#121212"/><path d="M31.735 9.16H6.216A6.216 6.216 0 0 0 0 15.378v25.519a6.216 6.216 0 0 0 6.216 6.216h25.52a6.216 6.216 0 0 0 6.215-6.216v-25.52a6.216 6.216 0 0 0-6.216-6.215Z" fill="#FF5634"/><path d="M31.572 27.973a12.596 12.596 0 0 1-25.192 0h5.029a7.566 7.566 0 1 0 15.133 0h5.03Z" fill="#fff"/><path d="M47.885 34.11h6.323c5.937 0 10.153-3.675 10.153-8.841 0-5.166-4.216-8.816-10.153-8.816h-6.323V34.11Zm3.779-3.444v-10.77h3.032c3.367 0 5.758 2.237 5.758 5.373 0 3.161-2.39 5.397-5.758 5.397h-3.032Zm21.789.437c-1.568 0-2.725-.977-3.162-2.416h9.587c0-5.012-2.442-8.173-6.605-8.173-3.881 0-6.837 2.904-6.837 6.914 0 4.086 3.084 6.99 7.042 6.99 1.954 0 4.241-.822 5.424-2.055l-2.39-2.442c-.72.694-2.006 1.182-3.06 1.182Zm-.026-7.274c1.516 0 2.493.849 2.853 2.16h-5.937c.488-1.337 1.67-2.16 3.084-2.16Zm8.99 10.281h3.752V16.144h-3.752V34.11Zm8.904-15.113c1.105 0 2.005-.925 2.005-2.056 0-1.054-.9-2.005-2.005-2.005-1.156 0-2.056.951-2.056 2.005 0 1.131.9 2.056 2.056 2.056ZM89.42 34.11h3.753V20.822H89.42V34.11Zm11.475 0h3.47l5.68-13.288h-3.906l-3.496 8.97-3.572-8.97h-3.933l5.757 13.288Zm16.584-3.007c-1.568 0-2.724-.977-3.161-2.416h9.587c0-5.012-2.442-8.173-6.606-8.173-3.881 0-6.837 2.904-6.837 6.914 0 4.086 3.085 6.99 7.043 6.99 1.953 0 4.241-.822 5.423-2.055l-2.39-2.442c-.72.694-2.005 1.182-3.059 1.182Zm-.026-7.274c1.517 0 2.493.849 2.853 2.16h-5.937c.488-1.337 1.671-2.16 3.084-2.16Zm12.743-.54v-2.467h-3.753V34.11h3.753v-6.348c0-2.493 1.773-4.087 4.549-4.087v-3.161c-2.03 0-3.675 1.054-4.549 2.776Zm30.085-6.836h-4.421l-4.241 5.783-4.24-5.783h-4.473l6.452 8.867-6.452 8.79h4.395l4.267-5.783 4.215 5.783h4.498l-6.477-8.867 6.477-8.79Z" fill="#121212"/></g><defs><clipPath id="a"><path fill="#fff" d="M0 0h161v48H0z"/></clipPath></defs></svg>