<svg width="239" height="40" viewBox="0 0 239 40" fill="none" xmlns="http://www.w3.org/2000/svg">
<path d="M7.39059 27.1639H41.5631V32.0457C41.5631 33.3405 41.0488 34.5822 40.1333 35.4977C39.2177 36.4132 37.976 36.9275 36.6813 36.9275H12.2724C10.9776 36.9275 9.73595 36.4132 8.82043 35.4977C7.90492 34.5822 7.39059 33.3405 7.39059 32.0457V27.1639Z" stroke="#929292" stroke-width="4.68728" stroke-linecap="round" stroke-linejoin="round"/>
<path d="M17.1542 2.75513H31.7995C34.389 2.75513 36.8724 3.78379 38.7034 5.61481C40.5344 7.44584 41.5631 9.92924 41.5631 12.5187V17.4005H7.39059V12.5187C7.39059 9.92924 8.41925 7.44584 10.2503 5.61481C12.0813 3.78379 14.5647 2.75513 17.1542 2.75513Z" stroke="#929292" stroke-width="3.89088" stroke-linecap="round" stroke-linejoin="round"/>
<path d="M41.5632 17.4004H7.39064C4.6945 17.4004 2.50885 19.586 2.50885 22.2822C2.50885 24.9783 4.6945 27.164 7.39064 27.164H41.5632C44.2593 27.164 46.4449 24.9783 46.4449 22.2822C46.4449 19.586 44.2593 17.4004 41.5632 17.4004Z" stroke="#929292" stroke-width="3.89088" stroke-linecap="round" stroke-linejoin="round"/>
<path d="M80.0412 29.9219L74.3852 21.8896C77.5311 20.7852 79.6061 18.1078 79.6061 14.6941C79.6061 10.1425 75.9247 6.92957 70.938 6.92957H60.5965V29.9219H65.5162V22.4586H69.1642L74.4186 29.9219H80.0412ZM65.5162 11.4477H70.4025C72.8456 11.4477 74.519 12.7195 74.519 14.6941C74.519 16.6687 72.8456 17.9405 70.4025 17.9405H65.5162V11.4477ZM91.3109 26.0062C89.2694 26.0062 87.7633 24.7344 87.1944 22.8602H99.6778C99.6778 16.334 96.4984 12.2175 91.0766 12.2175C86.023 12.2175 82.1742 15.9993 82.1742 21.2203C82.1742 26.5416 86.1903 30.3235 91.3444 30.3235C93.8879 30.3235 96.8665 29.2525 98.406 27.6461L95.2935 24.4666C94.3565 25.3703 92.6831 26.0062 91.3109 26.0062ZM91.2774 16.5348C93.252 16.5348 94.5238 17.6392 94.9923 19.3461H87.2613C87.8972 17.6058 89.4367 16.5348 91.2774 16.5348ZM109.476 30.3235C113.727 30.3235 116.504 28.1481 116.504 24.7344C116.504 20.9525 113.191 19.9485 110.213 19.1788C107.87 18.5429 107.167 18.2751 107.167 17.338C107.167 16.7356 108.004 16.3005 109.209 16.3005C110.681 16.3005 112.488 16.8695 114.061 17.8401L116.036 14.3594C114.128 13.0876 111.685 12.2175 109.209 12.2175C105.125 12.2175 102.415 14.5602 102.448 17.8401C102.482 21.2538 105.226 22.2243 108.773 23.0945C110.547 23.563 111.819 23.8977 111.819 24.9687C111.819 25.7384 110.882 26.2739 109.577 26.2739C107.267 26.2739 105.326 25.4372 103.787 24.3328L101.678 27.713C103.753 29.3864 106.698 30.3235 109.476 30.3235ZM128.886 25.638C128.551 25.9727 127.882 26.207 127.213 26.207C126.309 26.207 125.573 25.4037 125.573 24.2658V16.5683H129.321V12.6191H125.573V7.86666H120.887V12.6191H118.511V16.5683H120.887V25.0356C120.887 28.1481 123.029 30.3235 126.075 30.3235C127.48 30.3235 129.053 29.7211 130.057 28.8174L128.886 25.638ZM140.849 12.2175C138.439 12.2175 136.063 12.8868 133.619 14.1251L135.259 17.3715C136.632 16.6687 138.138 16.1332 139.744 16.1332C142.589 16.1332 143.727 17.7396 143.727 19.5804V19.915C142.254 19.3461 140.715 19.0449 139.309 19.0449C135.293 19.0449 132.113 21.3876 132.113 24.8013C132.113 28.1146 134.958 30.3235 138.64 30.3235C140.514 30.3235 142.488 29.5872 143.727 28.1816V29.9219H148.446V19.5804C148.446 15.0622 145.367 12.2175 140.849 12.2175ZM139.744 26.9433C138.071 26.9433 136.832 26.0731 136.832 24.6675C136.832 23.2618 138.238 22.2243 140.012 22.2243C141.351 22.2243 142.622 22.4586 143.727 22.8602V24.4666C143.392 26.0731 141.618 26.9433 139.744 26.9433ZM164.043 12.6191V22.9606L164.01 22.8602C164.01 24.7344 162.437 26.207 160.395 26.207C158.454 26.207 157.116 24.7344 157.116 22.5925V12.6191H152.397V23.63C152.397 27.5457 155.074 30.3235 158.822 30.3235C161.065 30.3235 163.006 29.3195 164.043 27.7465V29.9219H168.93V12.6191H164.043ZM178.008 15.832V12.6191H173.122V29.9219H178.008V21.6554C178.008 18.409 180.317 16.334 183.932 16.334V12.2175C181.288 12.2175 179.146 13.5897 178.008 15.832ZM194.482 12.2175C192.072 12.2175 189.696 12.8868 187.253 14.1251L188.893 17.3715C190.265 16.6687 191.771 16.1332 193.377 16.1332C196.222 16.1332 197.36 17.7396 197.36 19.5804V19.915C195.887 19.3461 194.348 19.0449 192.942 19.0449C188.926 19.0449 185.747 21.3876 185.747 24.8013C185.747 28.1146 188.591 30.3235 192.273 30.3235C194.147 30.3235 196.122 29.5872 197.36 28.1816V29.9219H202.079V19.5804C202.079 15.0622 199 12.2175 194.482 12.2175ZM193.377 26.9433C191.704 26.9433 190.466 26.0731 190.466 24.6675C190.466 23.2618 191.871 22.2243 193.645 22.2243C194.984 22.2243 196.256 22.4586 197.36 22.8602V24.4666C197.025 26.0731 195.251 26.9433 193.377 26.9433ZM216.204 12.2175C213.962 12.2175 212.021 13.2215 210.983 14.7945V12.6191H206.097V29.9219H210.983V19.5804L211.017 19.6808C211.017 17.8066 212.59 16.334 214.631 16.334C216.572 16.334 217.911 17.8066 217.911 19.9485V29.9219H222.63V18.911C222.63 14.9953 219.952 12.2175 216.204 12.2175ZM235.858 25.638C235.524 25.9727 234.854 26.207 234.185 26.207C233.281 26.207 232.545 25.4037 232.545 24.2658V16.5683H236.293V12.6191H232.545V7.86666H227.859V12.6191H225.483V16.5683H227.859V25.0356C227.859 28.1481 230.001 30.3235 233.047 30.3235C234.453 30.3235 236.026 29.7211 237.03 28.8174L235.858 25.638Z" fill="#929292"/>
</svg>
