<svg width="239" height="45" viewBox="0 0 239 45" fill="none" xmlns="http://www.w3.org/2000/svg">
<path d="M21.3564 3.64478L5.53008 33.4157C5.31027 33.8262 5.17418 34.2764 5.12972 34.7399C5.08525 35.2035 5.13329 35.6713 5.27105 36.1161C5.40881 36.561 5.63355 36.974 5.93222 37.3313C6.23089 37.6886 6.59755 37.9831 7.01092 38.1976C12.2737 40.8501 18.0852 42.2319 23.9788 42.2319C29.8723 42.2319 35.6838 40.8501 40.9466 38.1976C41.3706 37.9941 41.7494 37.7076 42.0607 37.3551C42.372 37.0027 42.6095 36.5914 42.759 36.1456C42.9086 35.6997 42.9672 35.2284 42.9315 34.7595C42.8957 34.2906 42.7663 33.8337 42.5509 33.4157L26.7245 3.64478C26.4554 3.17 26.0652 2.77508 25.5937 2.50033C25.1221 2.22557 24.5862 2.08081 24.0405 2.08081C23.4947 2.08081 22.9588 2.22557 22.4872 2.50033C22.0157 2.77508 21.6255 3.17 21.3564 3.64478Z" stroke="#929292" stroke-width="3.89088" stroke-linecap="round" stroke-linejoin="round"/>
<path d="M40.2063 29.2201C35.1681 31.6656 29.6408 32.9361 24.0405 32.9361C18.4402 32.9361 12.9129 31.6656 7.87476 29.2201" stroke="#929292" stroke-width="3.89088" stroke-linecap="round" stroke-linejoin="round"/>
<path d="M19.413 23.6979V25.2404" stroke="#929292" stroke-width="3.89088" stroke-linecap="round" stroke-linejoin="round"/>
<path d="M28.6682 23.6979V25.2404" stroke="#929292" stroke-width="3.89088" stroke-linecap="round" stroke-linejoin="round"/>
<path d="M24.0405 14.4426V15.9852" stroke="#929292" stroke-width="3.89088" stroke-linecap="round" stroke-linejoin="round"/>
<path d="M79.8256 31.9219L74.1696 23.8896C77.3155 22.7852 79.3905 20.1078 79.3905 16.6941C79.3905 12.1425 75.7091 8.92957 70.7224 8.92957H60.3809V31.9219H65.3006V24.4586H68.9486L74.203 31.9219H79.8256ZM65.3006 13.4477H70.1869C72.63 13.4477 74.3034 14.7195 74.3034 16.6941C74.3034 18.6687 72.63 19.9405 70.1869 19.9405H65.3006V13.4477ZM91.0953 28.0062C89.0538 28.0062 87.5477 26.7344 86.9788 24.8602H99.4622C99.4622 18.334 96.2828 14.2175 90.861 14.2175C85.8074 14.2175 81.9586 17.9993 81.9586 23.2203C81.9586 28.5416 85.9747 32.3235 91.1288 32.3235C93.6723 32.3235 96.6509 31.2525 98.1904 29.6461L95.0779 26.4666C94.1409 27.3703 92.4675 28.0062 91.0953 28.0062ZM91.0618 18.5348C93.0364 18.5348 94.3082 19.6392 94.7767 21.3461H87.0457C87.6816 19.6058 89.2211 18.5348 91.0618 18.5348ZM109.261 32.3235C113.511 32.3235 116.289 30.1481 116.289 26.7344C116.289 22.9525 112.975 21.9485 109.997 21.1788C107.654 20.5429 106.951 20.2751 106.951 19.338C106.951 18.7356 107.788 18.3005 108.993 18.3005C110.465 18.3005 112.273 18.8695 113.846 19.8401L115.82 16.3594C113.913 15.0876 111.469 14.2175 108.993 14.2175C104.91 14.2175 102.199 16.5602 102.232 19.8401C102.266 23.2538 105.01 24.2243 108.558 25.0945C110.332 25.563 111.603 25.8977 111.603 26.9687C111.603 27.7384 110.666 28.2739 109.361 28.2739C107.052 28.2739 105.111 27.4372 103.571 26.3328L101.463 29.713C103.538 31.3864 106.483 32.3235 109.261 32.3235ZM128.67 27.638C128.336 27.9727 127.666 28.207 126.997 28.207C126.093 28.207 125.357 27.4037 125.357 26.2658V18.5683H129.105V14.6191H125.357V9.86666H120.671V14.6191H118.295V18.5683H120.671V27.0356C120.671 30.1481 122.813 32.3235 125.859 32.3235C127.265 32.3235 128.838 31.7211 129.842 30.8174L128.67 27.638ZM140.633 14.2175C138.223 14.2175 135.847 14.8868 133.404 16.1251L135.044 19.3715C136.416 18.6687 137.922 18.1332 139.528 18.1332C142.373 18.1332 143.511 19.7396 143.511 21.5804V21.915C142.038 21.3461 140.499 21.0449 139.093 21.0449C135.077 21.0449 131.898 23.3876 131.898 26.8013C131.898 30.1146 134.743 32.3235 138.424 32.3235C140.298 32.3235 142.273 31.5872 143.511 30.1816V31.9219H148.23V21.5804C148.23 17.0622 145.151 14.2175 140.633 14.2175ZM139.528 28.9433C137.855 28.9433 136.617 28.0731 136.617 26.6675C136.617 25.2618 138.022 24.2243 139.796 24.2243C141.135 24.2243 142.407 24.4586 143.511 24.8602V26.4666C143.176 28.0731 141.403 28.9433 139.528 28.9433ZM163.828 14.6191V24.9606L163.794 24.8602C163.794 26.7344 162.221 28.207 160.18 28.207C158.239 28.207 156.9 26.7344 156.9 24.5925V14.6191H152.181V25.63C152.181 29.5457 154.858 32.3235 158.607 32.3235C160.849 32.3235 162.79 31.3195 163.828 29.7465V31.9219H168.714V14.6191H163.828ZM177.792 17.832V14.6191H172.906V31.9219H177.792V23.6554C177.792 20.409 180.102 18.334 183.716 18.334V14.2175C181.072 14.2175 178.93 15.5897 177.792 17.832ZM194.266 14.2175C191.856 14.2175 189.48 14.8868 187.037 16.1251L188.677 19.3715C190.049 18.6687 191.555 18.1332 193.162 18.1332C196.006 18.1332 197.144 19.7396 197.144 21.5804V21.915C195.672 21.3461 194.132 21.0449 192.727 21.0449C188.71 21.0449 185.531 23.3876 185.531 26.8013C185.531 30.1146 188.376 32.3235 192.057 32.3235C193.931 32.3235 195.906 31.5872 197.144 30.1816V31.9219H201.863V21.5804C201.863 17.0622 198.784 14.2175 194.266 14.2175ZM193.162 28.9433C191.488 28.9433 190.25 28.0731 190.25 26.6675C190.25 25.2618 191.656 24.2243 193.429 24.2243C194.768 24.2243 196.04 24.4586 197.144 24.8602V26.4666C196.81 28.0731 195.036 28.9433 193.162 28.9433ZM215.988 14.2175C213.746 14.2175 211.805 15.2215 210.767 16.7945V14.6191H205.881V31.9219H210.767V21.5804L210.801 21.6808C210.801 19.8066 212.374 18.334 214.415 18.334C216.357 18.334 217.695 19.8066 217.695 21.9485V31.9219H222.414V20.911C222.414 16.9953 219.737 14.2175 215.988 14.2175ZM235.643 27.638C235.308 27.9727 234.638 28.207 233.969 28.207C233.065 28.207 232.329 27.4037 232.329 26.2658V18.5683H236.078V14.6191H232.329V9.86666H227.644V14.6191H225.268V18.5683H227.644V27.0356C227.644 30.1481 229.786 32.3235 232.831 32.3235C234.237 32.3235 235.81 31.7211 236.814 30.8174L235.643 27.638Z" fill="#929292"/>
</svg>
